<svg width="23" height="20" viewBox="0 0 23 20" fill="none" xmlns="http://www.w3.org/2000/svg">
<path d="M11.7841 19.2841L2.65767 10.1577C1.92969 9.42969 1.44437 8.58333 1.2017 7.61861C0.964962 6.65388 0.967921 5.69508 1.21058 4.74219C1.45324 3.78338 1.93561 2.94886 2.65767 2.23864C3.39749 1.51065 4.24089 1.02829 5.18786 0.791548C6.14074 0.548887 7.09067 0.548887 8.03764 0.791548C8.99053 1.03421 9.83688 1.51657 10.5767 2.23864L11.7841 3.41051L12.9915 2.23864C13.7372 1.51657 14.5836 1.03421 15.5305 0.791548C16.4775 0.548887 17.4245 0.548887 18.3714 0.791548C19.3243 1.02829 20.1707 1.51065 20.9105 2.23864C21.6326 2.94886 22.1149 3.78338 22.3576 4.74219C22.6003 5.69508 22.6003 6.65388 22.3576 7.61861C22.1209 8.58333 21.6385 9.42969 20.9105 10.1577L11.7841 19.2841ZM11.7841 16.0703L19.3036 8.55078C19.7298 8.12464 20.0139 7.62453 20.1559 7.05043C20.3039 6.47633 20.3068 5.90518 20.1648 5.337C20.0286 4.76882 19.7475 4.27758 19.3214 3.86328C18.8775 3.42531 18.3714 3.1353 17.8033 2.99325C17.241 2.84529 16.6758 2.84529 16.1076 2.99325C15.5394 3.14122 15.0275 3.43419 14.5717 3.87216L11.7841 6.5799L8.99645 3.87216C8.54664 3.43419 8.03468 3.14122 7.46058 2.99325C6.8924 2.84529 6.32422 2.84529 5.75604 2.99325C5.19377 3.1353 4.6907 3.42531 4.2468 3.86328C3.82659 4.27758 3.54545 4.76882 3.40341 5.337C3.26136 5.90518 3.26136 6.47633 3.40341 7.05043C3.55137 7.62453 3.83842 8.12464 4.26456 8.55078L11.7841 16.0703Z" fill="black"/>
</svg>
