<svg width="28" height="24" viewBox="0 0 28 24" fill="none" xmlns="http://www.w3.org/2000/svg">
<g filter="url(#filter0_d_579_549)">
<path d="M6 18C5.45 18 4.97933 17.8043 4.588 17.413C4.19667 17.0217 4.00067 16.5507 4 16V4C4 3.45 4.196 2.97933 4.588 2.588C4.98 2.19667 5.45067 2.00067 6 2H22C22.55 2 23.021 2.196 23.413 2.588C23.805 2.98 24.0007 3.45067 24 4V16C24 16.55 23.8043 17.021 23.413 17.413C23.0217 17.805 22.5507 18.0007 22 18H6ZM14 11L6 6V16H22V6L14 11ZM14 9L22 4H6L14 9ZM6 6V4V16V6Z" fill="white"/>
</g>
<defs>
<filter id="filter0_d_579_549" x="0" y="0" width="28" height="24" filterUnits="userSpaceOnUse" color-interpolation-filters="sRGB">
<feFlood flood-opacity="0" result="BackgroundImageFix"/>
<feColorMatrix in="SourceAlpha" type="matrix" values="0 0 0 0 0 0 0 0 0 0 0 0 0 0 0 0 0 0 127 0" result="hardAlpha"/>
<feOffset dy="2"/>
<feGaussianBlur stdDeviation="2"/>
<feComposite in2="hardAlpha" operator="out"/>
<feColorMatrix type="matrix" values="0 0 0 0 0.283833 0 0 0 0 0.325 0 0 0 0 0.285253 0 0 0 0.15 0"/>
<feBlend mode="normal" in2="BackgroundImageFix" result="effect1_dropShadow_579_549"/>
<feBlend mode="normal" in="SourceGraphic" in2="effect1_dropShadow_579_549" result="shape"/>
</filter>
</defs>
</svg>
