<svg width="62" height="62" viewBox="0 0 62 62" fill="none" xmlns="http://www.w3.org/2000/svg">
<g filter="url(#filter0_d_1192_831)">
<circle cx="31" cy="27" r="27" fill="white" fill-opacity="0.9" shape-rendering="crispEdges"/>
</g>
<g filter="url(#filter1_d_1192_831)">
<path d="M16 25.75C15.3096 25.75 14.75 26.3096 14.75 27C14.75 27.6904 15.3096 28.25 16 28.25L16 25.75ZM46.8839 27.8839C47.372 27.3957 47.372 26.6043 46.8839 26.1161L38.9289 18.1612C38.4408 17.673 37.6493 17.673 37.1612 18.1612C36.673 18.6493 36.673 19.4408 37.1612 19.9289L44.2322 27L37.1612 34.0711C36.673 34.5592 36.673 35.3507 37.1612 35.8388C37.6493 36.327 38.4408 36.327 38.9289 35.8388L46.8839 27.8839ZM16 28.25L46 28.25L46 25.75L16 25.75L16 28.25Z" fill="black"/>
</g>
<defs>
<filter id="filter0_d_1192_831" x="0" y="0" width="62" height="62" filterUnits="userSpaceOnUse" color-interpolation-filters="sRGB">
<feFlood flood-opacity="0" result="BackgroundImageFix"/>
<feColorMatrix in="SourceAlpha" type="matrix" values="0 0 0 0 0 0 0 0 0 0 0 0 0 0 0 0 0 0 127 0" result="hardAlpha"/>
<feOffset dy="4"/>
<feGaussianBlur stdDeviation="2"/>
<feComposite in2="hardAlpha" operator="out"/>
<feColorMatrix type="matrix" values="0 0 0 0 0 0 0 0 0 0 0 0 0 0 0 0 0 0 0.25 0"/>
<feBlend mode="normal" in2="BackgroundImageFix" result="effect1_dropShadow_1192_831"/>
<feBlend mode="normal" in="SourceGraphic" in2="effect1_dropShadow_1192_831" result="shape"/>
</filter>
<filter id="filter1_d_1192_831" x="10.75" y="15.795" width="40.5" height="26.4099" filterUnits="userSpaceOnUse" color-interpolation-filters="sRGB">
<feFlood flood-opacity="0" result="BackgroundImageFix"/>
<feColorMatrix in="SourceAlpha" type="matrix" values="0 0 0 0 0 0 0 0 0 0 0 0 0 0 0 0 0 0 127 0" result="hardAlpha"/>
<feOffset dy="2"/>
<feGaussianBlur stdDeviation="2"/>
<feComposite in2="hardAlpha" operator="out"/>
<feColorMatrix type="matrix" values="0 0 0 0 0.283833 0 0 0 0 0.325 0 0 0 0 0.285253 0 0 0 0.3 0"/>
<feBlend mode="normal" in2="BackgroundImageFix" result="effect1_dropShadow_1192_831"/>
<feBlend mode="normal" in="SourceGraphic" in2="effect1_dropShadow_1192_831" result="shape"/>
</filter>
</defs>
</svg>
