<svg width="24" height="28" viewBox="0 0 24 28" fill="none" xmlns="http://www.w3.org/2000/svg">
<g filter="url(#filter0_d_579_551)">
<path d="M19.6643 18.5067L17.7801 15.6811C17.3754 15.0777 16.9093 14.6652 16.2766 15.0593L15.0202 15.783C14.0303 16.4652 13.417 16.0323 12.7592 15.3381L9.46726 10.0189C9.06249 9.4155 9.12653 8.77866 9.75921 8.38459L11.5081 7.31626C12.1402 6.91834 11.9382 6.3268 11.5335 5.72344L9.44781 2.86998C9.04305 2.26662 8.39648 2.2055 7.7638 2.59957C6.49904 3.39156 5.51902 4.47834 4.99971 5.94295C4.36787 7.73257 5.16952 9.96167 5.49748 10.9003C5.82544 11.8389 6.71083 13.436 7.78424 15.0472C8.85825 16.6622 9.77422 17.9194 10.5277 18.5948C11.2774 19.2706 13.1173 21.153 15.0607 21.3358C16.6534 21.4824 18.2582 20.9017 19.5229 20.1097C20.1611 19.7266 20.0659 19.1145 19.6643 18.5067Z" fill="white"/>
</g>
<defs>
<filter id="filter0_d_579_551" x="0.763672" y="0.350586" width="23.2207" height="27.0078" filterUnits="userSpaceOnUse" color-interpolation-filters="sRGB">
<feFlood flood-opacity="0" result="BackgroundImageFix"/>
<feColorMatrix in="SourceAlpha" type="matrix" values="0 0 0 0 0 0 0 0 0 0 0 0 0 0 0 0 0 0 127 0" result="hardAlpha"/>
<feOffset dy="2"/>
<feGaussianBlur stdDeviation="2"/>
<feComposite in2="hardAlpha" operator="out"/>
<feColorMatrix type="matrix" values="0 0 0 0 0.283833 0 0 0 0 0.325 0 0 0 0 0.285253 0 0 0 0.15 0"/>
<feBlend mode="normal" in2="BackgroundImageFix" result="effect1_dropShadow_579_551"/>
<feBlend mode="normal" in="SourceGraphic" in2="effect1_dropShadow_579_551" result="shape"/>
</filter>
</defs>
</svg>
