<svg width="28" height="22" viewBox="0 0 28 22" fill="none" xmlns="http://www.w3.org/2000/svg">
<path d="M0 10.64V0H10.64V10.24C10.64 12.6934 10.4267 14.5334 10 15.76C9.52 16.9867 8.7733 18.0534 7.76 18.96C6.8533 19.8134 5.7333 20.48 4.4 20.96C3.0133 21.4934 1.6 21.7867 0.16 21.84V16.48C1.4933 16.48 2.5867 16.0534 3.44 15.2C4.2933 14.4 4.72 13.3334 4.72 12V10.64H0ZM16.56 10.64V0H27.2V10.24C27.2 12.6934 26.9867 14.5334 26.56 15.76C26.08 16.9867 25.3333 18.0534 24.32 18.96C23.4133 19.8134 22.2933 20.48 20.96 20.96C19.5733 21.4934 18.16 21.7867 16.72 21.84V16.48C18.0533 16.48 19.1467 16.0534 20 15.2C20.8533 14.4 21.28 13.3334 21.28 12V10.64H16.56Z" fill="black"/>
</svg>
