<svg width="23" height="55" viewBox="0 0 23 55" fill="none" xmlns="http://www.w3.org/2000/svg">
<path d="M13.559 18.8583C15.2766 22.7414 17.6812 25.1616 21.015 27.2276C17.6812 29.2936 15.2766 31.7138 13.559 35.5969L14.4736 36.0014L13.559 35.5969C13.1779 36.4587 12.8566 37.7479 12.5736 39.2032C12.2862 40.6812 12.0238 42.4115 11.7813 44.2015C11.6847 44.9142 11.5911 45.6384 11.5 46.3623C11.4089 45.6384 11.3153 44.9142 11.2187 44.2015C10.9762 42.4115 10.7138 40.6812 10.4264 39.2032C10.1434 37.7479 9.82212 36.4587 9.44094 35.5969C7.72337 31.7138 5.3188 29.2936 1.98505 27.2276C5.3188 25.1616 7.72337 22.7414 9.44094 18.8583L8.54 18.4598L9.44094 18.8583C9.82212 17.9965 10.1434 16.7073 10.4264 15.252C10.7138 13.774 10.9762 12.0437 11.2187 10.2538C11.3153 9.54106 11.4089 8.81678 11.5 8.09296C11.5911 8.81678 11.6847 9.54106 11.7813 10.2538C12.0238 12.0437 12.2862 13.774 12.5736 15.252C12.8566 16.7073 13.1779 17.9965 13.559 18.8583L14.4736 18.4538L13.559 18.8583Z" stroke="#B3D0B4" stroke-width="2"/>
</svg>
