<svg width="127" height="16" viewBox="0 0 127 16" fill="none" xmlns="http://www.w3.org/2000/svg">
<path d="M2.83203 1.60938C3.35286 1.84375 4.10156 1.96094 5.07812 1.96094H5.60547C5.71615 1.96094 5.77148 2.01628 5.77148 2.12695L6.12305 1.96094H6.28906C6.54948 1.96094 6.7806 2.01628 6.98242 2.12695C7.18424 2.01628 7.41536 1.96094 7.67578 1.96094H8.02734C8.13802 1.96094 8.19336 2.01628 8.19336 2.12695L8.54492 1.96094H10.4395C10.9212 1.96094 11.556 1.90234 12.3438 1.78516C12.4609 1.78516 12.5195 1.84375 12.5195 1.96094L13.7305 1.78516H15.9766C16.3216 1.90234 16.4941 2.2474 16.4941 2.82031C15.459 3.16536 14.7689 3.33789 14.4238 3.33789H12.8613C12.7507 3.33789 12.6953 3.2793 12.6953 3.16211L12.3438 3.33789H10.2734V7.48828C10.2734 7.7487 10.2148 7.97982 10.0977 8.18164C10.0977 8.29883 10.1562 8.35742 10.2734 8.35742C10.2734 8.44206 10.2148 8.78711 10.0977 9.39258C10.2148 11.7233 10.2734 13.3379 10.2734 14.2363C10.2734 14.6986 9.63867 14.9297 8.36914 14.9297H7.67578C7.21354 14.9297 6.98242 13.6602 6.98242 11.1211V7.14648L7.1582 6.11133C7.04102 5.91602 6.98242 5.6263 6.98242 5.24219V3.85547C6.98242 3.6276 6.86849 3.51367 6.64062 3.51367H4.21875C1.79688 3.51367 0.585938 3.22396 0.585938 2.64453V2.30273L2.83203 1.60938ZM26.9234 1.78516C29.456 3.20443 30.7223 5.33659 30.7223 8.18164C30.7223 11.1178 28.8212 13.25 25.0191 14.5781C23.8277 14.5781 22.9033 14.6367 22.2457 14.7539C19.596 14.207 18.2711 12.8822 18.2711 10.7793H18.4469L18.2711 10.4277V9.56836C18.2711 9.45117 18.3297 9.39258 18.4469 9.39258L18.2711 9.05078V8.69922C18.2711 8.58203 18.3297 8.52344 18.4469 8.52344L18.2711 8.18164V8.00586H18.6129C18.5022 7.78451 18.4469 7.61198 18.4469 7.48828C19.6318 3.6862 21.7639 1.78516 24.8434 1.78516H26.9234ZM21.0348 9.73438C21.0348 11.5703 21.7281 12.7812 23.1148 13.3672H23.2906C26.0576 12.2148 27.441 10.4863 27.441 8.18164H27.607C27.607 5.81836 26.8583 4.4349 25.3609 4.03125C24.9833 3.6862 24.6969 3.51367 24.5016 3.51367C22.1904 5.2194 21.0348 7.29297 21.0348 9.73438ZM35.7805 2.47852C35.9042 2.47852 36.0799 2.53385 36.3078 2.64453C36.4185 2.64453 36.4738 2.58919 36.4738 2.47852L37.5187 2.64453C42.0109 2.64453 44.257 2.87565 44.257 3.33789C44.3742 3.56576 44.4328 3.73828 44.4328 3.85547C43.4497 4.20052 42.7564 4.37305 42.3527 4.37305V4.20703C42.2421 4.20703 42.1867 4.26237 42.1867 4.37305C40.6828 4.14518 39.0682 4.03125 37.343 4.03125V4.20703C37.2258 5.38542 37.1672 6.30664 37.1672 6.9707V8.18164C37.1672 8.29883 37.1086 8.35742 36.9914 8.35742C37.1672 8.81966 37.343 9.05078 37.5187 9.05078C41.1646 8.58854 43.6418 8.35742 44.9504 8.35742L45.1262 8.69922C44.7811 9.07682 44.6086 9.36654 44.6086 9.56836H44.4328C44.3156 9.56836 44.257 9.50977 44.257 9.39258C43.8794 9.62044 43.5344 9.73438 43.2219 9.73438V9.56836L36.9914 10.6035C37.1086 13.6374 37.1672 15.4245 37.1672 15.9648H36.6496C36.3892 15.9648 36.1581 15.9062 35.9562 15.7891C35.7544 15.9062 35.5233 15.9648 35.2629 15.9648C34.3449 15.9648 33.8859 14.8125 33.8859 12.5078V10.7793C33.8859 7.92773 34.0585 5.67839 34.4035 4.03125L32.4992 3.51367V2.99609C33.5604 2.65104 34.6542 2.47852 35.7805 2.47852ZM51.0535 1.0918C51.1707 1.31315 51.2293 1.48568 51.2293 1.60938C50.5327 4.58464 50.1844 6.88932 50.1844 8.52344C50.1844 11.1081 50.8777 12.8984 52.2645 13.8945C53.6382 13.5495 54.9077 12.0488 56.073 9.39258C56.5288 7.75846 56.8152 6.375 56.9324 5.24219C56.8152 3.97917 56.7566 2.88542 56.7566 1.96094C57.6095 1.4987 58.3615 1.26758 59.0125 1.26758H59.3543C59.8165 1.26758 60.0477 2.59245 60.0477 5.24219C60.0477 6.84375 59.3543 9.20703 57.9676 12.332C56.7566 13.8359 54.8556 14.8743 52.2645 15.4473H50.5359C48.8367 15.4473 47.6258 13.4876 46.9031 9.56836V8.18164C46.9031 4.78971 47.4793 2.54036 48.6316 1.43359C49.7384 1.20573 50.5457 1.0918 51.0535 1.0918ZM71.6289 1.60938C72.1497 1.84375 72.8984 1.96094 73.875 1.96094H74.4023C74.513 1.96094 74.5684 2.01628 74.5684 2.12695L74.9199 1.96094H75.0859C75.3464 1.96094 75.5775 2.01628 75.7793 2.12695C75.9811 2.01628 76.2122 1.96094 76.4727 1.96094H76.8242C76.9349 1.96094 76.9902 2.01628 76.9902 2.12695L77.3418 1.96094H79.2363C79.7181 1.96094 80.3529 1.90234 81.1406 1.78516C81.2578 1.78516 81.3164 1.84375 81.3164 1.96094L82.5273 1.78516H84.7734C85.1185 1.90234 85.291 2.2474 85.291 2.82031C84.2559 3.16536 83.5658 3.33789 83.2207 3.33789H81.6582C81.5475 3.33789 81.4922 3.2793 81.4922 3.16211L81.1406 3.33789H79.0703V7.48828C79.0703 7.7487 79.0117 7.97982 78.8945 8.18164C78.8945 8.29883 78.9531 8.35742 79.0703 8.35742C79.0703 8.44206 79.0117 8.78711 78.8945 9.39258C79.0117 11.7233 79.0703 13.3379 79.0703 14.2363C79.0703 14.6986 78.4355 14.9297 77.166 14.9297H76.4727C76.0104 14.9297 75.7793 13.6602 75.7793 11.1211V7.14648L75.9551 6.11133C75.8379 5.91602 75.7793 5.6263 75.7793 5.24219V3.85547C75.7793 3.6276 75.6654 3.51367 75.4375 3.51367H73.0156C70.5938 3.51367 69.3828 3.22396 69.3828 2.64453V2.30273L71.6289 1.60938ZM90.8766 1.78516C90.9938 1.78516 91.1663 1.84375 91.3941 1.96094C92.1819 1.84375 92.8167 1.78516 93.2984 1.78516H93.816C94.0439 1.81771 94.1578 1.93164 94.1578 2.12695V2.82031C92.8883 2.82031 92.2535 3.39648 92.2535 4.54883C92.1428 5.35612 92.0289 5.75977 91.9117 5.75977C91.9117 5.87695 91.9703 5.93555 92.0875 5.93555C91.9703 6.42383 91.8531 7.7487 91.7359 9.91016C91.8531 10.1315 91.9117 10.304 91.9117 10.4277L91.7359 10.7793C91.8792 12.1595 92.0517 12.8496 92.2535 12.8496L95.193 12.332V12.8496C94.7828 13.5462 94.1513 13.8945 93.2984 13.8945C91.7034 14.4674 90.7789 14.7539 90.525 14.7539C90.0497 14.7539 88.8974 14.64 87.068 14.4121V13.7188C88.1031 13.4844 88.6207 13.2533 88.6207 13.0254V11.9902L88.4547 10.2617H88.6207C88.6207 10.1445 88.5654 10.0859 88.4547 10.0859C88.5654 7.66406 88.8518 5.5319 89.3141 3.68945C87.8167 3.57227 87.068 3.34115 87.068 2.99609V2.64453C88.1031 2.1888 89.0244 1.96094 89.8316 1.96094C90.0595 2.07161 90.232 2.12695 90.3492 2.12695C90.7008 2.01628 90.8766 1.90234 90.8766 1.78516ZM110.622 0.916016V1.0918L110.974 0.916016H111.14C111.309 0.916016 111.482 1.08854 111.657 1.43359C111.657 2.59245 111.775 4.03451 112.009 5.75977H111.833C111.95 5.98112 112.009 6.15365 112.009 6.27734L111.833 6.62891L112.175 7.48828C112.175 7.60547 112.12 7.66406 112.009 7.66406L112.175 8.875V9.91016C112.175 10.6589 112.234 11.8112 112.351 13.3672C111.661 13.3672 111.316 13.5983 111.316 14.0605C109.818 13.9368 109.07 13.5918 109.07 13.0254C109.07 12.765 109.011 12.5339 108.894 12.332C108.894 12.2148 108.952 12.1562 109.07 12.1562L108.894 11.2969V10.9453C108.894 10.138 108.835 8.87174 108.718 7.14648C107.644 8.91732 106.664 10.2422 105.779 11.1211C105.668 11.1211 105.613 11.0625 105.613 10.9453C105.398 10.9453 104.935 11.0625 104.226 11.2969C103.184 11.2969 102.435 10.6035 101.98 9.2168C101.296 7.95378 100.892 7.32227 100.769 7.32227L100.241 10.0859C100.241 10.2031 100.3 10.2617 100.417 10.2617L100.241 11.1211V11.2969C100.241 11.8763 100.3 12.7422 100.417 13.8945C99.9419 14.2331 99.3072 14.4056 98.5129 14.4121C97.4777 14.4121 96.9602 13.8913 96.9602 12.8496C96.9602 10.1673 97.1913 7.92122 97.6535 6.11133C97.6535 5.99414 97.5949 5.93555 97.4777 5.93555C97.9074 3.05143 98.5422 1.60938 99.382 1.60938C100.365 1.38151 101 1.26758 101.286 1.26758C103.389 5.49935 104.6 7.6901 104.919 7.83984H105.085C105.847 6.13411 106.827 4.17448 108.025 1.96094C108.109 1.38151 108.285 1.0918 108.552 1.0918C108.663 1.0918 108.718 1.15039 108.718 1.26758L110.622 0.916016ZM120.866 2.12695C122.481 2.21159 123.288 2.32878 123.288 2.47852C123.399 2.47852 123.454 2.41992 123.454 2.30273C125.068 2.30273 125.876 2.70638 125.876 3.51367C125.095 3.65039 124.577 3.82292 124.323 4.03125L119.479 3.51367C119.017 5.10221 118.672 6.6582 118.444 8.18164C118.555 8.18164 118.61 8.24023 118.61 8.35742C119.912 8.12305 121.758 7.95052 124.147 7.83984C124.727 7.98307 125.016 8.1556 125.016 8.35742V8.69922C124.626 8.93359 122.376 9.27865 118.268 9.73438C117.923 10.5677 117.692 11.9544 117.575 13.8945L117.927 14.0605C119.02 14.0605 120.749 13.7155 123.112 13.0254C123.242 13.0254 123.877 12.9115 125.016 12.6836H126.227L126.393 13.543L124.499 14.4121L118.093 15.4473V15.2715L117.751 15.4473H117.057C116.641 15.4473 116.123 15.5059 115.505 15.623L114.118 15.0957C115.108 7.83659 115.801 4.20703 116.198 4.20703C116.198 3.95964 115.736 3.66992 114.811 3.33789V2.82031L116.882 2.30273V2.47852L117.233 2.30273C117.63 2.30273 118.841 2.24414 120.866 2.12695Z" fill="black"/>
</svg>
