<svg width="28" height="28" viewBox="0 0 28 28" fill="none" xmlns="http://www.w3.org/2000/svg">
<g filter="url(#filter0_d_579_545)">
<path d="M7.14421 5.14532C6.76217 5.53292 6.51117 6.07711 6.37124 7.11107C6.22797 8.18279 6.22686 9.60212 6.22686 11.6445V12.3553C6.22686 14.3943 6.22797 15.8125 6.37124 16.8832C6.51006 17.9182 6.76217 18.4657 7.14532 18.8567C7.53403 19.2376 8.07822 19.4897 9.11107 19.6285C10.1828 19.7718 11.6021 19.774 13.6445 19.774H14.3553C16.3943 19.774 17.8125 19.7718 18.8843 19.6285C19.9182 19.4897 20.4657 19.2376 20.8567 18.8545C21.2376 18.4669 21.4897 17.9227 21.6285 16.8887C21.7729 15.817 21.774 14.3977 21.774 12.3553V11.6445C21.774 9.60545 21.7718 8.18723 21.6297 7.11662C21.4897 6.08155 21.2376 5.53403 20.8545 5.1431C20.4669 4.76217 19.9227 4.51006 18.8887 4.37124C17.817 4.22797 16.3977 4.22575 14.3553 4.22575H13.6445C11.6055 4.22575 10.1872 4.22797 9.11662 4.37124C8.08155 4.51006 7.53514 4.76217 7.14421 5.14532ZM13.6445 2.00457H14.3553C15.9601 2.00457 17.5893 1.95681 19.183 2.17005C20.4669 2.34219 21.5541 2.7098 22.4226 3.56939L22.4315 3.57939C23.29 4.45009 23.6587 5.53736 23.8308 6.82231C24.043 8.41379 23.9952 10.0419 23.9952 11.6445V12.3553C23.9952 13.959 24.0441 15.5882 23.8297 17.183C23.6587 18.4669 23.29 19.5541 22.4304 20.4226L22.4204 20.4315C21.5508 21.29 20.4635 21.6576 19.1775 21.8308C17.586 22.043 15.9579 21.9952 14.3553 21.9952H13.6445C12.0408 21.9952 10.4116 22.043 8.81787 21.8297C7.53292 21.6576 6.44565 21.29 5.57828 20.4304L5.56828 20.4204C4.71091 19.5497 4.34219 18.4624 4.17005 17.1775C3.95681 15.5871 4.00457 13.959 4.00457 12.3553V11.6445C4.00457 10.0408 3.95681 8.41157 4.17116 6.81676C4.34219 5.53292 4.71091 4.44565 5.5705 3.57717L5.57939 3.56828C6.45009 2.7098 7.53736 2.34219 8.82231 2.16894C10.4149 1.95793 12.043 2.00457 13.6445 2.00457ZM7.37632 8.08839C7.48294 13.286 10.0817 16.4045 14.6396 16.4045H14.9061V13.4326C16.5787 13.5991 17.8448 14.8252 18.3512 16.4045H20.7167C20.4741 15.5071 20.0439 14.6714 19.4547 13.9524C18.8655 13.2334 18.1305 12.6474 17.2983 12.2331C18.0441 11.779 18.6883 11.176 19.1904 10.4617C19.6926 9.74739 20.0421 8.93719 20.217 8.08172H18.0713C17.6049 9.73428 16.2188 11.2336 14.9061 11.3735V8.08839H12.7538V13.8457C11.4211 13.5125 9.74188 11.8999 9.66858 8.08839H7.37632Z" fill="white"/>
</g>
<defs>
<filter id="filter0_d_579_545" x="0" y="0" width="28" height="28" filterUnits="userSpaceOnUse" color-interpolation-filters="sRGB">
<feFlood flood-opacity="0" result="BackgroundImageFix"/>
<feColorMatrix in="SourceAlpha" type="matrix" values="0 0 0 0 0 0 0 0 0 0 0 0 0 0 0 0 0 0 127 0" result="hardAlpha"/>
<feOffset dy="2"/>
<feGaussianBlur stdDeviation="2"/>
<feComposite in2="hardAlpha" operator="out"/>
<feColorMatrix type="matrix" values="0 0 0 0 0.283833 0 0 0 0 0.325 0 0 0 0 0.285253 0 0 0 0.15 0"/>
<feBlend mode="normal" in2="BackgroundImageFix" result="effect1_dropShadow_579_545"/>
<feBlend mode="normal" in="SourceGraphic" in2="effect1_dropShadow_579_545" result="shape"/>
</filter>
</defs>
</svg>
