<svg width="203" height="34" viewBox="0 0 203 34" fill="none" xmlns="http://www.w3.org/2000/svg">
<g filter="url(#filter0_d_1116_603)">
<path d="M4.35 11.15H10.45C11.6333 11.15 12.5917 11.4917 13.325 12.175C14.075 12.8417 14.45 13.7083 14.45 14.775C14.4333 15.425 14.2333 16.0083 13.85 16.525C13.4667 17.025 12.9667 17.4 12.35 17.65C13.1333 17.8833 13.7583 18.2917 14.225 18.875C14.7083 19.4583 14.95 20.125 14.95 20.875C14.95 22.025 14.5417 23 13.725 23.8C12.9083 24.6 11.7583 25 10.275 25H4.35V11.15ZM7.675 14V16.5H9.85C10.25 16.5167 10.5667 16.4083 10.8 16.175C11.05 15.925 11.1833 15.6167 11.2 15.25C11.2 14.8833 11.075 14.5833 10.825 14.35C10.5917 14.1167 10.2667 14 9.85 14H7.675ZM7.675 19.35V22.15H10.05C10.5833 22.1667 10.9917 22.0417 11.275 21.775C11.5583 21.5083 11.7 21.1667 11.7 20.75C11.7 20.3333 11.55 20 11.25 19.75C10.9667 19.5 10.5667 19.3667 10.05 19.35H7.675ZM27.5 20.5H31.25C30.7 22.0167 29.8333 23.225 28.65 24.125C27.4833 25.0083 26.0667 25.45 24.4 25.45C22.2 25.45 20.375 24.75 18.925 23.35C17.475 21.95 16.75 20.1583 16.75 17.975C16.75 15.9083 17.4583 14.1833 18.875 12.8C20.3083 11.4 22.1083 10.7 24.275 10.7C25.9917 10.7 27.4667 11.1583 28.7 12.075C29.9333 12.9917 30.7833 14.2167 31.25 15.75H27.5C27.1667 15.1333 26.7167 14.6667 26.15 14.35C25.6 14.0333 24.9583 13.8667 24.225 13.85C22.9417 13.85 21.925 14.2583 21.175 15.075C20.4417 15.875 20.075 16.8583 20.075 18.025C20.075 19.2583 20.45 20.2833 21.2 21.1C21.9667 21.9167 22.975 22.3167 24.225 22.3C24.925 22.3 25.5583 22.1583 26.125 21.875C26.7083 21.575 27.1667 21.1167 27.5 20.5ZM47.6662 19.55H36.8162C37.0162 20.4 37.4412 21.075 38.0912 21.575C38.7579 22.0583 39.5412 22.3 40.4412 22.3C41.1079 22.3167 41.6995 22.2167 42.2162 22C42.7495 21.7667 43.1912 21.4333 43.5412 21H47.2912C46.7079 22.3833 45.8245 23.475 44.6412 24.275C43.4579 25.0583 42.0995 25.45 40.5662 25.45C38.4829 25.45 36.7412 24.75 35.3412 23.35C33.9412 21.95 33.2412 20.225 33.2412 18.175C33.2412 16.125 33.9412 14.3667 35.3412 12.9C36.7579 11.4333 38.5162 10.7 40.6162 10.7C42.6995 10.7 44.3995 11.4083 45.7162 12.825C47.0495 14.2417 47.7245 15.9917 47.7412 18.075C47.7412 18.4083 47.7329 18.6917 47.7162 18.925C47.6995 19.1417 47.6829 19.35 47.6662 19.55ZM36.7662 16.6H44.2662C44.0329 15.75 43.5829 15.0833 42.9162 14.6C42.2495 14.1 41.4829 13.85 40.6162 13.85C39.6995 13.8667 38.8912 14.125 38.1912 14.625C37.5079 15.1083 37.0329 15.7667 36.7662 16.6ZM56.6674 25V11.15H61.4924L65.0674 21L68.6424 11.15H73.4674V25H70.1424V14.825L66.4424 25H63.6924L59.9924 14.825V25H56.6674ZM90.4992 19.55H79.6492C79.8492 20.4 80.2742 21.075 80.9242 21.575C81.5909 22.0583 82.3742 22.3 83.2742 22.3C83.9409 22.3167 84.5326 22.2167 85.0492 22C85.5826 21.7667 86.0242 21.4333 86.3742 21H90.1242C89.5409 22.3833 88.6576 23.475 87.4742 24.275C86.2909 25.0583 84.9326 25.45 83.3992 25.45C81.3159 25.45 79.5742 24.75 78.1742 23.35C76.7742 21.95 76.0742 20.225 76.0742 18.175C76.0742 16.125 76.7742 14.3667 78.1742 12.9C79.5909 11.4333 81.3492 10.7 83.4492 10.7C85.5326 10.7 87.2326 11.4083 88.5492 12.825C89.8826 14.2417 90.5576 15.9917 90.5742 18.075C90.5742 18.4083 90.5659 18.6917 90.5492 18.925C90.5326 19.1417 90.5159 19.35 90.4992 19.55ZM79.5992 16.6H87.0992C86.8659 15.75 86.4159 15.0833 85.7492 14.6C85.0826 14.1 84.3159 13.85 83.4492 13.85C82.5326 13.8667 81.7242 14.125 81.0242 14.625C80.3409 15.1083 79.8659 15.7667 79.5992 16.6ZM93.1654 11.15H96.4904V16.25H101.64V11.15H104.965V25H101.64V19.2H96.4904V25H93.1654V11.15ZM111.492 16.15H113.442C113.859 14.55 114.734 13.2417 116.067 12.225C117.401 11.2083 118.984 10.7 120.817 10.7C122.934 10.7 124.684 11.425 126.067 12.875C127.467 14.3083 128.167 16.05 128.167 18.1C128.167 20.1833 127.467 21.9333 126.067 23.35C124.684 24.75 122.934 25.45 120.817 25.45C118.834 25.45 117.167 24.875 115.817 23.725C114.484 22.5583 113.692 21.0833 113.442 19.3H111.492V25H108.167V11.15H111.492V16.15ZM120.817 13.85C119.617 13.85 118.642 14.2667 117.892 15.1C117.142 15.9333 116.767 16.9333 116.767 18.1C116.751 19.2667 117.117 20.2583 117.867 21.075C118.634 21.8917 119.617 22.3 120.817 22.3C122.001 22.3 122.967 21.8917 123.717 21.075C124.467 20.2583 124.842 19.2667 124.842 18.1C124.842 16.9333 124.467 15.9333 123.717 15.1C122.967 14.2667 122.001 13.85 120.817 13.85Z" fill="white"/>
</g>
<g filter="url(#filter1_d_1116_603)">
<path d="M147 15.75C146.31 15.75 145.75 16.3096 145.75 17C145.75 17.6904 146.31 18.25 147 18.25L147 15.75ZM197.884 17.8839C198.372 17.3957 198.372 16.6043 197.884 16.1161L189.929 8.16117C189.441 7.67301 188.649 7.67301 188.161 8.16117C187.673 8.64932 187.673 9.44078 188.161 9.92894L195.232 17L188.161 24.0711C187.673 24.5592 187.673 25.3507 188.161 25.8388C188.649 26.327 189.441 26.327 189.929 25.8388L197.884 17.8839ZM147 18.25L197 18.25L197 15.75L147 15.75L147 18.25Z" fill="white"/>
</g>
<defs>
<filter id="filter0_d_1116_603" x="0.349609" y="8.7002" width="131.818" height="22.75" filterUnits="userSpaceOnUse" color-interpolation-filters="sRGB">
<feFlood flood-opacity="0" result="BackgroundImageFix"/>
<feColorMatrix in="SourceAlpha" type="matrix" values="0 0 0 0 0 0 0 0 0 0 0 0 0 0 0 0 0 0 127 0" result="hardAlpha"/>
<feOffset dy="2"/>
<feGaussianBlur stdDeviation="2"/>
<feComposite in2="hardAlpha" operator="out"/>
<feColorMatrix type="matrix" values="0 0 0 0 0.283833 0 0 0 0 0.325 0 0 0 0 0.285253 0 0 0 0.3 0"/>
<feBlend mode="normal" in2="BackgroundImageFix" result="effect1_dropShadow_1116_603"/>
<feBlend mode="normal" in="SourceGraphic" in2="effect1_dropShadow_1116_603" result="shape"/>
</filter>
<filter id="filter1_d_1116_603" x="141.75" y="5.79492" width="60.5" height="26.4102" filterUnits="userSpaceOnUse" color-interpolation-filters="sRGB">
<feFlood flood-opacity="0" result="BackgroundImageFix"/>
<feColorMatrix in="SourceAlpha" type="matrix" values="0 0 0 0 0 0 0 0 0 0 0 0 0 0 0 0 0 0 127 0" result="hardAlpha"/>
<feOffset dy="2"/>
<feGaussianBlur stdDeviation="2"/>
<feComposite in2="hardAlpha" operator="out"/>
<feColorMatrix type="matrix" values="0 0 0 0 0.283833 0 0 0 0 0.325 0 0 0 0 0.285253 0 0 0 0.3 0"/>
<feBlend mode="normal" in2="BackgroundImageFix" result="effect1_dropShadow_1116_603"/>
<feBlend mode="normal" in="SourceGraphic" in2="effect1_dropShadow_1116_603" result="shape"/>
</filter>
</defs>
</svg>
