<svg width="129" height="61" viewBox="0 0 129 61" fill="none" xmlns="http://www.w3.org/2000/svg">
<path d="M18.5628 20.9082L19.3366 21.7029L20.9976 30.6243C21.2186 31.8116 20.4331 32.572 18.641 32.9057C18.6785 33.1073 18.2996 33.2822 17.5044 33.4302C16.3171 33.6513 15.6129 33.1682 15.3919 31.9809C15.2161 29.916 15.0207 28.3067 14.8059 27.153L14.4181 25.0697C14.3451 24.6777 14.107 24.5192 13.7037 24.5943L12.8133 24.7601C10.6627 25.1605 8.33787 25.9004 5.83862 26.9799L4.64574 27.202C4.58109 26.8548 4.29228 26.3929 3.7793 25.8162C6.15349 24.563 8.92156 23.4334 12.0835 22.4275L12.1398 22.7299L12.6715 22.318L14.1668 22.0396C15.1525 21.8561 16.6178 21.479 18.5628 20.9082ZM36.8206 18.1348L37.95 19.1588C37.9854 19.3492 37.9024 19.4631 37.7008 19.5007L38.1158 20.0492C38.9947 30.559 39.2606 35.8463 38.9134 35.9109C38.3197 36.0215 37.365 36.402 36.0491 37.0526L35.7466 37.1089C35.6611 36.6497 35.0122 36.4634 33.7999 36.5501L33.5215 35.0548C33.4402 34.6179 33.4624 34.2082 33.5882 33.8255C33.5507 33.6239 33.4367 33.5408 33.2463 33.5763L33.2535 32.0278L32.8656 29.9444C30.0878 30.4616 28.7917 31.2186 28.9773 32.2155C28.8349 32.5086 28.869 33.2207 29.0796 34.352L29.8554 38.5187C28.7801 38.7189 27.8253 39.0995 26.991 39.6604C25.9942 39.846 25.1072 39.5012 24.33 38.6261L24.1079 37.4332C22.2603 27.5093 22.1317 22.3993 23.7222 22.1032C24.4279 21.9718 25.3006 21.7108 26.3404 21.3202L27.0942 22.1012L28.48 29.5441C31.8514 28.9164 33.4255 28.0033 33.2024 26.8049C32.9529 23.2239 32.7489 21.0079 32.5904 20.1566L32.5341 19.8542C34.0365 18.9602 35.4654 18.3871 36.8206 18.1348ZM10.5349 30.7296C11.3462 31.7259 11.7956 32.4592 11.8832 32.9296C11.9208 33.1313 11.8387 33.2508 11.6371 33.2884L12.2179 34.7274L13.1595 39.7845C13.5515 39.7115 13.7652 39.7702 13.8007 39.9606L18.7484 38.4311C18.95 38.3935 19.0695 38.4756 19.1071 38.6772L20.5293 38.0995L21.1341 37.9869C21.5261 37.9139 21.7774 38.1742 21.8879 38.7678C21.9463 39.0815 21.6227 39.5531 20.9172 40.1828L20.9735 40.4852L20.3291 40.2923C18.722 40.9971 13.6558 42.4503 5.13057 44.6517L5.02109 44.0637C4.93142 43.5821 5.91296 42.7851 7.96573 41.6728L6.63631 34.5323C6.2672 32.5498 7.56674 31.2822 10.5349 30.7296ZM22.132 43.3464L23.0224 43.1806L23.6001 44.6028L24.0786 52.2147L24.1349 52.5171L24.7397 52.4045C27.6407 51.8644 30.7233 50.7747 33.9876 49.1356L34.7414 49.9165C34.9645 51.115 34.1856 51.88 32.4047 52.2116C32.1023 52.2679 30.4718 52.8786 27.5134 54.0436L27.4571 53.7412C26.1115 54.6059 23.585 55.3834 19.8775 56.0737C19.3958 55.6651 19.1258 55.3039 19.0674 54.9903C18.2528 48.374 18.3383 44.9741 19.3239 44.7906C20.7703 43.9071 21.7063 43.4257 22.132 43.3464ZM54.1192 14.6012C54.3855 14.9109 54.5603 15.2898 54.6438 15.7378C50.6515 17.5125 46.7736 18.7502 43.0101 19.4509C42.0299 19.2278 41.463 18.9219 41.3096 18.5333C42.132 17.3487 46.4019 16.038 54.1192 14.6012ZM60.4256 13.74L62.2065 13.4084C62.2649 13.722 62.5405 14.0821 63.0334 14.4887L63.6403 17.7481C63.6778 17.9497 63.5958 18.0693 63.3941 18.1068C63.8728 19.2461 64.2802 19.7845 64.6162 19.722L69.0853 18.8899C69.4898 18.8841 69.7234 19.0492 69.7859 19.3853L69.9517 20.2757C68.0685 21.2406 66.7349 21.796 65.9508 21.9419L65.3065 21.749C64.4328 21.9117 64.267 23.791 64.809 27.387C64.1146 27.5162 62.9826 28.0341 61.413 28.9406C60.3056 28.5325 59.5559 28.365 59.1638 28.438C57.8154 19.4526 57.3764 14.9161 57.8469 14.8285L60.4256 13.74ZM53.6218 20.2392C53.8943 20.5825 54.0504 20.8605 54.09 21.0733C53.9086 22.2776 53.8784 23.2045 53.9993 23.8542L57.4465 27.5235L57.5591 28.1283C57.6508 28.6212 56.5376 29.2399 54.2193 29.9844C53.1362 29.7688 52.4042 29.6965 52.0234 29.7674C51.6586 31.481 50.4178 32.5348 48.3009 32.9289C48.3384 33.1305 48.2564 33.2501 48.0548 33.2877C46.8174 33.2399 46.1675 33.048 46.1049 32.712C46.0298 32.3087 46.7187 29.4107 48.1715 24.0179L47.8691 24.0742L44.1175 25.3985L44.0612 25.0961L43.5294 25.508C43.1447 25.371 42.7283 25.3442 42.2803 25.4276L42.1145 24.5372C43.7473 23.4103 47.5831 21.9777 53.6218 20.2392ZM59.7279 29.8801L59.781 30.1657L60.3327 29.7675L60.6183 29.7143C61.2232 29.6017 61.5433 29.6406 61.5788 29.831L63.0041 29.2701L65.0874 28.8823L66.6359 28.8895L66.6922 29.1919C66.8653 30.1216 63.92 31.3884 57.8563 32.9925C55.8279 33.1152 54.7626 32.9022 54.6604 32.3533C54.5728 31.8829 56.262 31.0585 59.7279 29.8801ZM50.6595 34.0195L51.5499 33.8538C51.7404 33.8183 51.8543 33.9014 51.8919 34.103L52.4404 33.688L52.7428 33.6317L53.3068 35.0738L53.4726 35.9643C53.5102 36.1659 53.4337 36.2844 53.2433 36.3198C53.2808 36.5215 53.3948 36.6045 53.5852 36.5691L53.8533 39.5961L54.1285 41.0746C54.3302 41.037 54.6458 41.0826 55.0753 41.2112C59.2308 40.4375 61.6492 38.5502 62.3305 35.5493L62.2742 35.2469L61.9718 35.3032C60.9301 35.4971 59.2632 35.9118 56.9709 36.5472C55.5445 36.6041 54.7948 36.4366 54.7218 36.0446C54.6467 35.6414 56.0436 34.8656 58.9125 33.7172L58.9688 34.0196L59.5006 33.6077C60.4414 33.4326 61.4515 33.3488 62.5307 33.3565L63.9697 32.7757C64.1713 32.7381 64.2908 32.8202 64.3284 33.0218L65.7506 32.4441L67.8339 32.0562L67.8902 32.3586C68.0696 33.3219 67.5329 34.8589 66.2802 36.9695C65.9994 38.7601 65.9059 39.9075 65.9997 40.4115C66.7278 40.276 67.1824 38.8586 67.3636 36.1594L67.9685 36.0468C68.6395 36.1652 69.4257 36.5287 70.3271 37.1374L70.8588 36.7255L71.7493 36.5597L71.915 37.4502C72.3488 39.7799 69.8859 41.9884 64.5264 44.0756C62.2783 44.0769 60.9885 43.1872 60.657 41.4062L60.6007 41.1038C57.0247 42.998 53.859 44.2016 51.1036 44.7146L51.0504 44.429L50.5155 44.8241L50.2131 44.8804C49.1224 44.562 48.477 43.8651 48.2768 42.7899C47.3529 37.8279 47.5855 35.2177 48.9744 34.9591C49.7136 34.8215 50.2753 34.5083 50.6595 34.0195ZM92.4888 10.2389L93.3793 10.0731L93.957 11.4953L94.7327 15.662L95.3208 15.5525C95.7688 15.4691 96.1476 15.2942 96.4573 15.028C96.8757 15.1587 97.1913 15.2042 97.4041 15.1646L97.9526 14.7496C99.0246 14.9672 99.7566 15.0395 100.149 14.9665L100.258 15.5546C100.419 16.417 98.9209 17.2116 95.7649 17.9382L94.8745 18.104L94.9599 20.2437C95.4848 21.9422 95.7701 22.9147 95.816 23.1612C94.5153 24.0176 92.9856 24.6095 91.2271 24.9369L90.1145 23.9098L89.6172 21.2384C88.3972 14.6859 88.8737 11.2074 91.0467 10.8029C91.3473 10.5499 91.828 10.3619 92.4888 10.2389ZM80.9324 12.686L84.2378 13.9132C85.5078 15.1949 86.3024 16.6926 86.6214 18.4064C85.7074 22.2734 83.6598 24.5031 80.4788 25.0953C80.5143 25.2858 79.8375 25.5103 78.4487 25.7688C76.0181 26.2214 74.3529 24.9959 73.453 22.0923L73.3967 21.7899C72.9505 19.3929 74.5086 16.7445 78.0712 13.8445L80.9324 12.686ZM79.0368 17.35C78.6329 18.4798 78.5206 19.5263 78.7 20.4896L78.8658 21.3801C78.92 21.6713 79.2731 21.9184 79.9251 22.1215L80.8156 21.9558C81.1819 20.6243 81.3307 19.7738 81.2619 19.4042L81.1493 18.7994C80.9282 17.6121 80.2241 17.129 79.0368 17.35ZM110.382 5.04733C111.942 5.52174 114.083 6.56029 116.803 8.16298L117.408 8.05037C118.326 6.44252 119.484 5.50825 120.884 5.24758C121.516 5.33867 121.85 5.48502 121.887 5.68663C122.119 6.92992 120.793 8.61389 117.909 10.7386C116.906 11.3308 116.147 11.6749 115.632 11.7708C113.93 12.0878 112.626 11.7162 111.722 10.6561L108.002 8.88035L107.111 9.04613C106.798 9.10452 106.535 9.87196 106.323 11.3484C104.899 12.2278 103.862 12.7279 103.213 12.8489L102.91 12.9052L102.688 11.7123C102.131 8.72169 104.696 6.50004 110.382 5.04733Z" fill="white"/>
<mask id="mask0_1188_827" style="mask-type:luminance" maskUnits="userSpaceOnUse" x="0" y="0" width="129" height="61">
<path d="M128.861 0H0V60.0545H128.861V0Z" fill="white"/>
<path d="M18.5629 20.9082L19.3367 21.7029L20.9977 30.6243C21.2187 31.8116 20.4332 32.572 18.6411 32.9057C18.6786 33.1073 18.2997 33.2822 17.5045 33.4302C16.3173 33.6513 15.613 33.1682 15.392 31.9809C15.2162 29.916 15.0208 28.3067 14.806 27.153L14.4182 25.0697C14.3452 24.6777 14.1071 24.5192 13.7038 24.5943L12.8134 24.7601C10.6628 25.1605 8.33799 25.9004 5.83874 26.9799L4.64586 27.202C4.58121 26.8548 4.2924 26.3929 3.77942 25.8162C6.15361 24.563 8.92168 23.4334 12.0836 22.4275L12.1399 22.7299L12.6716 22.318L14.1669 22.0396C15.1526 21.8561 16.6179 21.479 18.5629 20.9082ZM36.8207 18.1348L37.9501 19.1588C37.9855 19.3492 37.9025 19.4631 37.7009 19.5007L38.1159 20.0492C38.9948 30.559 39.2607 35.8463 38.9135 35.9109C38.3198 36.0215 37.3651 36.402 36.0492 37.0526L35.7467 37.1089C35.6612 36.6497 35.0123 36.4634 33.8 36.5501L33.5216 35.0548C33.4403 34.6179 33.4625 34.2082 33.5883 33.8255C33.5508 33.6239 33.4368 33.5408 33.2464 33.5763L33.2536 32.0278L32.8657 29.9444C30.0879 30.4616 28.7918 31.2186 28.9774 32.2155C28.835 32.5086 28.8691 33.2207 29.0797 34.352L29.8555 38.5187C28.7802 38.7189 27.8254 39.0995 26.9911 39.6604C25.9943 39.846 25.1073 39.5012 24.3301 38.6261L24.108 37.4332C22.2604 27.5093 22.1318 22.3993 23.7223 22.1032C24.428 21.9718 25.3007 21.7108 26.3405 21.3202L27.0943 22.1012L28.4801 29.5441C31.8515 28.9164 33.4256 28.0033 33.2025 26.8049C32.953 23.2239 32.749 21.0079 32.5905 20.1566L32.5342 19.8542C34.0366 18.9602 35.4655 18.3871 36.8207 18.1348ZM10.5351 30.7296C11.3463 31.7259 11.7957 32.4592 11.8833 32.9296C11.9209 33.1313 11.8388 33.2508 11.6372 33.2884L12.218 34.7274L13.1596 39.7845C13.5516 39.7115 13.7653 39.7702 13.8008 39.9606L18.7485 38.4311C18.9501 38.3935 19.0696 38.4756 19.1072 38.6772L20.5294 38.0995L21.1342 37.9869C21.5262 37.9139 21.7775 38.1742 21.888 38.7678C21.9464 39.0815 21.6228 39.5531 20.9173 40.1828L20.9736 40.4852L20.3292 40.2923C18.7221 40.9971 13.6559 42.4503 5.13069 44.6517L5.02121 44.0637C4.93154 43.5821 5.91308 42.7851 7.96585 41.6728L6.63643 34.5323C6.26732 32.5498 7.56686 31.2822 10.5351 30.7296ZM22.1321 43.3464L23.0225 43.1806L23.6002 44.6028L24.0787 52.2147L24.135 52.5171L24.7398 52.4045C27.6408 51.8644 30.7234 50.7747 33.9877 49.1356L34.7415 49.9165C34.9646 51.115 34.1857 51.88 32.4048 52.2116C32.1024 52.2679 30.4719 52.8786 27.5135 54.0436L27.4572 53.7412C26.1116 54.6059 23.5851 55.3834 19.8776 56.0737C19.3959 55.6651 19.1259 55.3039 19.0675 54.9903C18.2529 48.374 18.3384 44.9741 19.324 44.7906C20.7704 43.9071 21.7064 43.4257 22.1321 43.3464ZM54.1193 14.6012C54.3856 14.9109 54.5604 15.2898 54.6439 15.7378C50.6516 17.5125 46.7738 18.7502 43.0103 19.4509C42.0301 19.2278 41.4631 18.9219 41.3097 18.5333C42.1321 17.3487 46.402 16.038 54.1193 14.6012ZM60.4257 13.74L62.2066 13.4084C62.265 13.722 62.5406 14.0821 63.0335 14.4887L63.6404 17.7481C63.6779 17.9497 63.5959 18.0693 63.3942 18.1068C63.8729 19.2461 64.2803 19.7845 64.6163 19.722L69.0854 18.8899C69.4899 18.8841 69.7235 19.0492 69.786 19.3853L69.9519 20.2757C68.0687 21.2406 66.735 21.796 65.9509 21.9419L65.3066 21.749C64.4329 21.9117 64.2671 23.791 64.8091 27.387C64.1147 27.5162 62.9827 28.0341 61.4131 28.9406C60.3057 28.5325 59.556 28.365 59.1639 28.438C57.8155 19.4526 57.3765 14.9161 57.847 14.8285L60.4257 13.74ZM53.6219 20.2392C53.8944 20.5825 54.0505 20.8605 54.0901 21.0733C53.9087 22.2776 53.8785 23.2045 53.9994 23.8542L57.4466 27.5235L57.5592 28.1283C57.6509 28.6212 56.5377 29.2399 54.2194 29.9844C53.1363 29.7688 52.4043 29.6965 52.0235 29.7674C51.6587 31.481 50.4179 32.5348 48.301 32.9289C48.3385 33.1305 48.2565 33.2501 48.0549 33.2877C46.8175 33.2399 46.1676 33.048 46.105 32.712C46.0299 32.3087 46.7188 29.4107 48.1716 24.0179L47.8692 24.0742L44.1176 25.3985L44.0613 25.0961L43.5295 25.508C43.1448 25.371 42.7284 25.3442 42.2804 25.4276L42.1146 24.5372C43.7474 23.4103 47.5832 21.9777 53.6219 20.2392ZM59.728 29.8801L59.7811 30.1657L60.3328 29.7675L60.6184 29.7143C61.2233 29.6017 61.5434 29.6406 61.5789 29.831L63.0042 29.2701L65.0876 28.8823L66.6361 28.8895L66.6923 29.1919C66.8654 30.1216 63.9201 31.3884 57.8564 32.9925C55.828 33.1152 54.7627 32.9022 54.6605 32.3533C54.5729 31.8829 56.2621 31.0585 59.728 29.8801ZM50.6596 34.0195L51.55 33.8538C51.7405 33.8183 51.8544 33.9014 51.892 34.103L52.4405 33.688L52.7429 33.6317L53.3069 35.0738L53.4727 35.9643C53.5103 36.1659 53.4338 36.2844 53.2434 36.3198C53.2809 36.5215 53.395 36.6045 53.5854 36.5691L53.8534 39.5961L54.1286 41.0746C54.3303 41.037 54.6459 41.0826 55.0754 41.2112C59.2309 40.4375 61.6493 38.5502 62.3306 35.5493L62.2743 35.2469L61.9719 35.3032C60.9302 35.4971 59.2633 35.9118 56.971 36.5472C55.5446 36.6041 54.7949 36.4366 54.7219 36.0446C54.6468 35.6414 56.0437 34.8656 58.9126 33.7172L58.9689 34.0196L59.5007 33.6077C60.4415 33.4326 61.4516 33.3488 62.5308 33.3565L63.9698 32.7757C64.1714 32.7381 64.2909 32.8202 64.3285 33.0218L65.7508 32.4441L67.8341 32.0562L67.8904 32.3586C68.0698 33.3219 67.533 34.8589 66.2803 36.9695C65.9995 38.7601 65.9061 39.9075 65.9999 40.4115C66.728 40.276 67.1826 38.8586 67.3638 36.1594L67.9687 36.0468C68.6397 36.1652 69.4259 36.5287 70.3273 37.1374L70.859 36.7255L71.7495 36.5597L71.9152 37.4502C72.349 39.7799 69.886 41.9884 64.5265 44.0756C62.2784 44.0769 60.9886 43.1872 60.6571 41.4062L60.6008 41.1038C57.0248 42.998 53.8591 44.2016 51.1037 44.7146L51.0505 44.429L50.5156 44.8241L50.2132 44.8804C49.1225 44.562 48.4771 43.8651 48.2769 42.7899C47.353 37.8279 47.5856 35.2177 48.9745 34.9591C49.7137 34.8215 50.2754 34.5083 50.6596 34.0195ZM92.489 10.2388L93.3795 10.0731L93.9572 11.4953L94.7328 15.662L95.321 15.5525C95.769 15.4691 96.1478 15.2942 96.4575 15.028C96.8759 15.1587 97.1915 15.2042 97.4043 15.1646L97.9528 14.7496C99.0248 14.9672 99.7568 15.0395 100.149 14.9665L100.258 15.5546C100.419 16.417 98.9211 17.2116 95.7651 17.9382L94.8746 18.104L94.9601 20.2437C95.485 21.9422 95.7703 22.9147 95.8162 23.1612C94.5155 24.0176 92.9857 24.6095 91.2272 24.9369L90.1147 23.9098L89.6174 21.2384C88.3974 14.6859 88.8739 11.2074 91.0469 10.8029C91.3475 10.5499 91.8282 10.3619 92.489 10.2388ZM80.9325 12.686L84.238 13.9132C85.508 15.1949 86.3026 16.6926 86.6216 18.4064C85.7076 22.2734 83.66 24.5031 80.479 25.0953C80.5145 25.2858 79.8377 25.5103 78.4489 25.7688C76.0183 26.2214 74.3531 24.9959 73.4532 22.0923L73.3969 21.7899C72.9507 19.3929 74.5088 16.7445 78.0714 13.8445L80.9325 12.686ZM79.0369 17.35C78.633 18.4798 78.5207 19.5263 78.7001 20.4896L78.866 21.3801C78.9202 21.6713 79.2733 21.9184 79.9253 22.1215L80.8158 21.9558C81.1821 20.6243 81.3309 19.7738 81.2621 19.4042L81.1495 18.7994C80.9284 17.6121 80.2242 17.129 79.0369 17.35ZM110.383 5.0473C111.943 5.52171 114.084 6.56026 116.804 8.16295L117.409 8.05034C118.327 6.44249 119.485 5.50822 120.885 5.24755C121.517 5.33864 121.851 5.48499 121.888 5.6866C122.12 6.92989 120.794 8.61386 117.91 10.7385C116.907 11.3308 116.148 11.6749 115.633 11.7708C113.931 12.0878 112.627 11.7162 111.723 10.6561L108.003 8.88032L107.112 9.0461C106.799 9.10449 106.536 9.87193 106.324 11.3484C104.9 12.2278 103.863 12.7279 103.214 12.8489L102.911 12.9052L102.689 11.7123C102.132 8.72166 104.697 6.50001 110.383 5.0473Z" fill="black"/>
</mask>
<g mask="url(#mask0_1188_827)">
<path d="M18.563 20.9082L19.2795 20.2106L18.8593 19.7791L18.2815 19.9487L18.563 20.9082ZM19.3368 21.7029L20.3199 21.5199L20.2645 21.2222L20.0532 21.0053L19.3368 21.7029ZM18.6412 32.9057L18.4581 31.9226L17.475 32.1056L17.6581 33.0887L18.6412 32.9057ZM15.3921 31.9809L14.3957 32.0657L14.3999 32.1151L14.409 32.1639L15.3921 31.9809ZM5.83875 26.9799L6.02178 27.9631L6.13219 27.9425L6.23528 27.898L5.83875 26.9799ZM4.64587 27.202L3.66276 27.3851L3.8458 28.3682L4.8289 28.1851L4.64587 27.202ZM3.77943 25.8162L3.31261 24.9319L2.1842 25.5275L3.03228 26.4809L3.77943 25.8162ZM12.0837 22.4275L13.0668 22.2444L12.8595 21.1313L11.7805 21.4745L12.0837 22.4275ZM12.14 22.7299L11.1569 22.9129L11.4568 24.524L12.7524 23.5205L12.14 22.7299ZM12.6717 22.318L12.4887 21.3349L12.2507 21.3792L12.0593 21.5274L12.6717 22.318ZM36.8208 18.1348L37.4925 17.394L37.1252 17.0609L36.6378 17.1517L36.8208 18.1348ZM37.9502 19.1588L38.9333 18.9757L38.8716 18.6443L38.6219 18.4179L37.9502 19.1588ZM37.701 19.5007L37.5179 18.5176L35.9272 18.8137L36.9035 20.104L37.701 19.5007ZM38.116 20.0492L39.1125 19.9659L39.0883 19.677L38.9134 19.4458L38.116 20.0492ZM36.0493 37.0526L36.2323 38.0357L36.3684 38.0104L36.4925 37.9491L36.0493 37.0526ZM35.7468 37.1089L34.7637 37.292L34.9468 38.2751L35.9299 38.092L35.7468 37.1089ZM33.8001 36.5501L32.817 36.7331L32.9805 37.6112L33.8714 37.5475L33.8001 36.5501ZM33.5884 33.8255L34.5384 34.1377L34.6184 33.8943L34.5715 33.6425L33.5884 33.8255ZM33.2465 33.5763L32.2465 33.5716L32.2408 34.7807L33.4295 34.5594L33.2465 33.5763ZM33.2537 32.0278L34.2537 32.0324L34.2541 31.9378L34.2368 31.8447L33.2537 32.0278ZM32.8658 29.9444L33.8489 29.7614L33.6659 28.7783L32.6828 28.9613L32.8658 29.9444ZM28.9775 32.2155L29.8769 32.6527L30.0209 32.3563L29.9606 32.0325L28.9775 32.2155ZM29.8556 38.5187L30.0386 39.5018L31.0217 39.3188L30.8387 38.3357L29.8556 38.5187ZM26.9912 39.6604L27.1743 40.6435L27.3776 40.6057L27.5492 40.4903L26.9912 39.6604ZM24.3302 38.6261L23.3471 38.8091L23.398 39.0823L23.5825 39.2901L24.3302 38.6261ZM26.3406 21.3202L27.0601 20.6257L26.6039 20.1531L25.989 20.3841L26.3406 21.3202ZM27.0944 22.1012L28.0775 21.9182L28.0226 21.6229L27.8139 21.4067L27.0944 22.1012ZM28.4802 29.5441L27.4971 29.7272L27.6801 30.7103L28.6632 30.5272L28.4802 29.5441ZM33.2026 26.8049L32.205 26.8744L32.209 26.9315L32.2195 26.9879L33.2026 26.8049ZM32.5343 19.8542L32.023 18.9948L31.4236 19.3515L31.5512 20.0372L32.5343 19.8542ZM10.5351 30.7296L11.3105 30.0981L10.9357 29.6378L10.352 29.7465L10.5351 30.7296ZM11.6373 33.2884L11.4543 32.3053L10.2524 32.529L10.71 33.6627L11.6373 33.2884ZM12.2181 34.7274L13.2012 34.5443L13.1829 34.4459L13.1454 34.3531L12.2181 34.7274ZM13.1597 39.7845L12.1766 39.9675L12.3596 40.9506L13.3427 40.7676L13.1597 39.7845ZM13.8009 39.9606L12.8178 40.1437L13.0233 41.2477L14.0963 40.916L13.8009 39.9606ZM18.7486 38.4311L18.5655 37.4479L18.5086 37.4586L18.4532 37.4757L18.7486 38.4311ZM19.1073 38.6772L18.1242 38.8602L18.3484 40.0648L19.4836 39.6037L19.1073 38.6772ZM20.5295 38.0995L20.3464 37.1164L20.2469 37.1349L20.1531 37.173L20.5295 38.0995ZM20.9174 40.1828L20.2515 39.4367L19.8311 39.8119L19.9342 40.3659L20.9174 40.1828ZM20.9737 40.4852L20.6868 41.4432L22.2567 41.9133L21.9568 40.3022L20.9737 40.4852ZM20.3293 40.2923L20.6162 39.3343L20.2642 39.2289L19.9277 39.3765L20.3293 40.2923ZM5.1307 44.6517L4.14759 44.8348L4.34364 45.8878L5.38073 45.62L5.1307 44.6517ZM7.96586 41.6728L8.44227 42.552L9.08219 42.2053L8.94897 41.4898L7.96586 41.6728ZM23.0226 43.1806L23.9491 42.8043L23.642 42.0482L22.8396 42.1975L23.0226 43.1806ZM23.6003 44.6028L24.5983 44.5401L24.5881 44.3775L24.5268 44.2265L23.6003 44.6028ZM24.0788 52.2147L23.0808 52.2774L23.0846 52.338L23.0957 52.3977L24.0788 52.2147ZM24.1351 52.5171L23.152 52.7001L23.335 53.6832L24.3181 53.5002L24.1351 52.5171ZM33.9878 49.1356L34.7073 48.4411L34.1964 47.9118L33.539 48.2419L33.9878 49.1356ZM34.7416 49.9165L35.7247 49.7335L35.6697 49.4382L35.4611 49.222L34.7416 49.9165ZM27.5136 54.0436L26.5305 54.2267L26.7523 55.4182L27.88 54.9741L27.5136 54.0436ZM27.4573 53.7412L28.4404 53.5582L28.1681 52.0957L26.9166 52.8999L27.4573 53.7412ZM19.8777 56.0737L19.2308 56.8363L19.5934 57.1438L20.0608 57.0568L19.8777 56.0737ZM19.0676 54.9903L18.0751 55.1125L18.0789 55.1431L18.0845 55.1733L19.0676 54.9903ZM19.3241 44.7906L19.5072 45.7737L19.6883 45.74L19.8454 45.6439L19.3241 44.7906ZM17.8465 21.6059L18.6203 22.4005L20.0532 21.0053L19.2795 20.2106L17.8465 21.6059ZM18.3537 21.8859L20.0147 30.8073L21.9809 30.4413L20.3199 21.5199L18.3537 21.8859ZM20.0147 30.8073C20.0714 31.1119 20.0024 31.2471 19.8789 31.3666C19.693 31.5465 19.2768 31.7702 18.4581 31.9226L18.8242 33.8888C19.7977 33.7076 20.6703 33.3841 21.27 32.8036C21.932 32.1627 22.1452 31.3239 21.9809 30.4413L20.0147 30.8073ZM17.6581 33.0887C17.6311 32.9441 17.6424 32.7945 17.6894 32.6569C17.7341 32.5259 17.801 32.4347 17.8504 32.3802C17.9378 32.2839 18.0073 32.2611 17.9662 32.2801C17.8928 32.3139 17.6987 32.3769 17.3215 32.4471L17.6876 34.4133C18.1057 34.3355 18.4987 34.237 18.8042 34.096C18.9524 34.0276 19.1594 33.914 19.3321 33.7236C19.5289 33.5065 19.7045 33.1534 19.6243 32.7227L17.6581 33.0887ZM17.3215 32.4471C16.8795 32.5294 16.708 32.4477 16.6517 32.4091C16.5955 32.3705 16.4575 32.2399 16.3752 31.7978L14.409 32.1639C14.5477 32.9091 14.8724 33.6137 15.5203 34.0583C16.1682 34.5028 16.9424 34.5521 17.6876 34.4133L17.3215 32.4471ZM16.3885 31.896C16.2116 29.819 16.013 28.1717 15.7892 26.97L13.823 27.3361C14.0289 28.4417 14.2209 30.013 14.3957 32.0657L16.3885 31.896ZM15.7892 26.97L15.4014 24.8867L13.4352 25.2527L13.823 27.3361L15.7892 26.97ZM15.4014 24.8867C15.3353 24.532 15.1596 24.1043 14.739 23.8244C14.3244 23.5484 13.8672 23.5467 13.5209 23.6112L13.887 25.5774C13.9439 25.5668 13.8073 25.6068 13.6309 25.4893C13.4483 25.3678 13.4282 25.2154 13.4352 25.2527L15.4014 24.8867ZM13.5209 23.6112L12.6304 23.777L12.9965 25.7432L13.887 25.5774L13.5209 23.6112ZM12.6304 23.777C10.3912 24.1939 7.99409 24.9597 5.44222 26.0619L6.23528 27.898C8.68191 26.8412 10.9346 26.1271 12.9965 25.7432L12.6304 23.777ZM5.65571 25.9968L4.46283 26.2189L4.8289 28.1851L6.02178 27.9631L5.65571 25.9968ZM5.62897 27.019C5.50974 26.3786 5.04824 25.738 4.52659 25.1516L3.03228 26.4809C3.26551 26.7431 3.42763 26.957 3.53286 27.1253C3.58484 27.2084 3.6183 27.2731 3.63897 27.3204C3.65993 27.3684 3.66346 27.3888 3.66276 27.3851L5.62897 27.019ZM4.24625 26.7006C6.55749 25.4805 9.26871 24.3724 12.3868 23.3804L11.7805 21.4745C8.57468 22.4944 5.74976 23.6454 3.31261 24.9319L4.24625 26.7006ZM11.1006 22.6105L11.1569 22.9129L13.1231 22.5469L13.0668 22.2444L11.1006 22.6105ZM12.7524 23.5205L13.2841 23.1086L12.0593 21.5274L11.5276 21.9393L12.7524 23.5205ZM12.8548 23.3011L14.3501 23.0227L13.984 21.0565L12.4887 21.3349L12.8548 23.3011ZM14.3501 23.0227C15.3876 22.8295 16.8928 22.4405 18.8446 21.8678L18.2815 19.9487C16.3432 20.5174 14.9177 20.8826 13.984 21.0565L14.3501 23.0227ZM36.1491 18.8756L37.2785 19.8996L38.6219 18.4179L37.4925 17.394L36.1491 18.8756ZM36.9671 19.3418C36.9538 19.2706 36.9326 19.0365 37.1064 18.798C37.2715 18.5714 37.4807 18.5245 37.5179 18.5176L37.884 20.4838C38.1228 20.4393 38.4743 20.3166 38.7226 19.9761C38.9795 19.6237 38.982 19.2373 38.9333 18.9757L36.9671 19.3418ZM36.9035 20.104L37.3185 20.6526L38.9134 19.4458L38.4984 18.8973L36.9035 20.104ZM37.1195 20.1326C37.5587 25.385 37.8438 29.3208 37.9759 31.9472C38.0421 33.2639 38.0688 34.2328 38.0592 34.868C38.0542 35.1916 38.0402 35.3941 38.0249 35.5017C38.0163 35.5628 38.014 35.5426 38.0358 35.4847C38.0463 35.4569 38.0809 35.3693 38.1596 35.2697C38.2388 35.1695 38.4217 34.9853 38.7306 34.9278L39.0966 36.894C39.4272 36.8325 39.6306 36.6341 39.7291 36.5094C39.8271 36.3854 39.8798 36.2632 39.9072 36.1905C39.9628 36.0429 39.9896 35.8922 40.0052 35.782C40.0384 35.5471 40.0537 35.2438 40.0589 34.8984C40.0696 34.1956 40.0401 33.1737 39.9733 31.8468C39.8395 29.186 39.5522 25.2233 39.1125 19.9659L37.1195 20.1326ZM38.7306 34.9278C37.9862 35.0664 36.9203 35.5065 35.6061 36.1562L36.4925 37.9491C37.8101 37.2976 38.6537 36.9765 39.0966 36.894L38.7306 34.9278ZM35.8662 36.0695L35.5638 36.1258L35.9299 38.092L36.2323 38.0357L35.8662 36.0695ZM36.73 36.9259C36.5887 36.1672 35.9767 35.8085 35.472 35.6636C34.9784 35.5219 34.3739 35.5065 33.7289 35.5526L33.8714 37.5475C34.4387 37.507 34.7648 37.5414 34.9201 37.586C34.9912 37.6064 34.97 37.6134 34.9169 37.5668C34.8489 37.507 34.7854 37.4081 34.7637 37.292L36.73 36.9259ZM34.7832 36.367L34.5049 34.8717L32.5386 35.2378L32.817 36.7331L34.7832 36.367ZM34.5049 34.8717C34.451 34.5827 34.4704 34.3447 34.5384 34.1377L32.6384 33.5133C32.4549 34.0717 32.4298 34.6531 32.5386 35.2378L34.5049 34.8717ZM34.5715 33.6425C34.527 33.4037 34.4043 33.0521 34.0638 32.8039C33.7114 32.547 33.325 32.5445 33.0634 32.5931L33.4295 34.5594C33.3584 34.5726 33.1242 34.5939 32.8857 34.4201C32.6592 34.2549 32.6122 34.0457 32.6053 34.0085L34.5715 33.6425ZM34.2465 33.5809L34.2537 32.0324L32.2537 32.0231L32.2465 33.5716L34.2465 33.5809ZM34.2368 31.8447L33.8489 29.7614L31.8827 30.1275L32.2706 32.2108L34.2368 31.8447ZM32.6828 28.9613C31.2623 29.2258 30.1062 29.5692 29.3061 30.0366C28.9012 30.273 28.5253 30.5767 28.2713 30.9779C28.0009 31.4048 27.9006 31.8947 27.9944 32.3985L29.9606 32.0325C29.9592 32.0246 29.9614 32.0318 29.9585 32.0465C29.9557 32.0607 29.952 32.0621 29.961 32.0478C29.9847 32.0105 30.0715 31.9056 30.3148 31.7636C30.8107 31.4739 31.6915 31.1802 33.0489 30.9275L32.6828 28.9613ZM28.0781 31.7783C27.8872 32.1711 27.8797 32.6482 27.8974 33.0172C27.9175 33.4376 27.9874 33.9483 28.0967 34.5351L30.0629 34.169C29.9615 33.6245 29.9091 33.2134 29.8951 32.9216C29.8882 32.7761 29.8918 32.6791 29.898 32.6211C29.9053 32.5539 29.9116 32.5814 29.8769 32.6527L28.0781 31.7783ZM28.0967 34.5351L28.8724 38.7017L30.8387 38.3357L30.0629 34.169L28.0967 34.5351ZM29.6725 37.5356C28.475 37.7585 27.3904 38.187 26.4333 38.8305L27.5492 40.4903C28.2606 40.0119 29.0855 39.6792 30.0386 39.5018L29.6725 37.5356ZM26.8082 38.6773C26.2148 38.7878 25.6648 38.623 25.0779 37.9621L23.5825 39.2901C24.5499 40.3795 25.774 40.9042 27.1743 40.6435L26.8082 38.6773ZM25.3133 38.443L25.0912 37.2502L23.125 37.6162L23.3471 38.8091L25.3133 38.443ZM25.0912 37.2502C24.1697 32.3004 23.6879 28.6055 23.6256 26.1327C23.5943 24.8861 23.6724 24.0243 23.8172 23.489C23.9769 22.8984 24.1085 23.0485 23.9055 23.0863L23.5394 21.1201C22.5411 21.306 22.0923 22.2059 21.8865 22.9669C21.6658 23.7831 21.5934 24.8745 21.6263 26.183C21.6926 28.8201 22.1989 32.6421 23.125 37.6162L25.0912 37.2502ZM23.9055 23.0863C24.6907 22.9401 25.6239 22.6577 26.6923 22.2564L25.989 20.3841C24.9777 20.764 24.1654 21.0036 23.5394 21.1201L23.9055 23.0863ZM25.6211 22.0147L26.3749 22.7957L27.8139 21.4067L27.0601 20.6257L25.6211 22.0147ZM26.1113 22.2843L27.4971 29.7272L29.4633 29.3611L28.0775 21.9182L26.1113 22.2843ZM28.6632 30.5272C30.3801 30.2076 31.753 29.7977 32.6911 29.2535C33.1646 28.9789 33.5905 28.6342 33.8753 28.1891C34.1769 27.7178 34.2894 27.1789 34.1857 26.6218L32.2195 26.9879C32.2273 27.03 32.2268 27.0547 32.1906 27.1113C32.1377 27.1941 32.0011 27.3417 31.6876 27.5235C31.0516 27.8924 29.9517 28.253 28.2971 28.561L28.6632 30.5272ZM34.2002 26.7353C33.9523 23.1773 33.7452 20.8943 33.5737 19.9736L31.6075 20.3396C31.7531 21.1214 31.9539 23.2706 32.205 26.8744L34.2002 26.7353ZM33.5737 19.9736L33.5174 19.6711L31.5512 20.0372L31.6075 20.3396L33.5737 19.9736ZM33.0457 20.7136C34.4727 19.8644 35.7908 19.3437 37.0039 19.1179L36.6378 17.1517C35.1403 17.4305 33.6007 18.056 32.023 18.9948L33.0457 20.7136ZM9.75965 31.361C10.1495 31.8397 10.4349 32.2342 10.628 32.5493C10.8315 32.8813 10.8901 33.0578 10.9003 33.1127L12.8665 32.7466C12.7892 32.331 12.5793 31.9057 12.3333 31.5043C12.0769 31.086 11.732 30.6157 11.3105 30.0981L9.75965 31.361ZM10.9003 33.1127C10.8909 33.0619 10.8635 32.8408 11.0255 32.6048C11.1874 32.3688 11.4035 32.3147 11.4543 32.3053L11.8203 34.2715C12.0727 34.2245 12.4307 34.0919 12.6746 33.7363C12.9186 33.3807 12.9135 32.999 12.8665 32.7466L10.9003 33.1127ZM10.71 33.6627L11.2908 35.1017L13.1454 34.3531L12.5646 32.9141L10.71 33.6627ZM11.235 34.9104L12.1766 39.9675L14.1428 39.6015L13.2012 34.5443L11.235 34.9104ZM13.3427 40.7676C13.4035 40.7563 13.4353 40.7544 13.4438 40.7542C13.4552 40.7539 13.4169 40.7567 13.3491 40.7381C13.2779 40.7185 13.1531 40.6689 13.0339 40.5497C12.908 40.4239 12.8421 40.2741 12.8178 40.1437L14.784 39.7776C14.742 39.552 14.636 39.3234 14.4479 39.1353C14.2663 38.9538 14.057 38.8584 13.8789 38.8095C13.5519 38.7197 13.2208 38.7559 12.9766 38.8014L13.3427 40.7676ZM14.0963 40.916L19.0439 39.3864L18.4532 37.4757L13.5055 39.0053L14.0963 40.916ZM18.9316 39.4142C18.8809 39.4236 18.6597 39.451 18.4237 39.289C18.1877 39.1271 18.1336 38.9109 18.1242 38.8602L20.0904 38.4941C20.0434 38.2418 19.9108 37.8838 19.5552 37.6398C19.1996 37.3959 18.8179 37.401 18.5655 37.4479L18.9316 39.4142ZM19.4836 39.6037L20.9058 39.026L20.1531 37.173L18.7309 37.7507L19.4836 39.6037ZM20.7125 39.0826L21.3173 38.97L20.9513 37.0038L20.3464 37.1164L20.7125 39.0826ZM21.3173 38.97C21.2905 38.975 21.2182 38.9827 21.1223 38.9547C21.0222 38.9256 20.9455 38.8718 20.8973 38.8219C20.8547 38.7777 20.8478 38.7511 20.8581 38.7752C20.8681 38.7989 20.8869 38.8535 20.905 38.9509L22.8712 38.5848C22.8016 38.211 22.6615 37.7698 22.3363 37.4329C21.9506 37.0333 21.4377 36.9132 20.9513 37.0038L21.3173 38.97ZM20.905 38.9509C20.8804 38.8184 20.9073 38.7293 20.9129 38.7127C20.918 38.6977 20.9117 38.7225 20.8646 38.7911C20.7682 38.9317 20.5778 39.1455 20.2515 39.4367L21.5832 40.9289C21.9624 40.5905 22.2867 40.2536 22.5138 39.9225C22.7168 39.6267 22.9755 39.1446 22.8712 38.5848L20.905 38.9509ZM19.9342 40.3659L19.9905 40.6683L21.9568 40.3022L21.9005 39.9998L19.9342 40.3659ZM21.2605 39.5273L20.6162 39.3343L20.0425 41.2503L20.6868 41.4432L21.2605 39.5273ZM19.9277 39.3765C19.1958 39.6975 17.5926 40.2198 15.0486 40.9495C12.5278 41.6726 9.13957 42.5837 4.88067 43.6835L5.38073 45.62C9.64709 44.5183 13.0547 43.6021 15.6 42.872C18.1222 42.1486 19.8557 41.592 20.731 41.2081L19.9277 39.3765ZM6.1138 44.4687L6.00432 43.8807L4.03811 44.2467L4.14759 44.8348L6.1138 44.4687ZM6.00432 43.8807C6.05324 44.1434 5.92919 44.2811 5.97499 44.2155C6.01038 44.1647 6.10854 44.0531 6.32046 43.8811C6.73875 43.5414 7.43289 43.099 8.44227 42.552L7.48945 40.7936C6.44607 41.3589 5.62304 41.8711 5.05979 42.3284C4.78093 42.5549 4.52223 42.8023 4.33464 43.0712C4.15747 43.3252 3.94436 43.7432 4.03811 44.2467L6.00432 43.8807ZM8.94897 41.4898L7.61954 34.3493L5.65333 34.7154L6.98276 41.8558L8.94897 41.4898ZM7.61954 34.3493C7.48816 33.6436 7.65144 33.1823 8.03251 32.8106C8.47498 32.379 9.31243 31.9744 10.7181 31.7127L10.352 29.7465C8.78952 30.0374 7.49309 30.5429 6.63602 31.3789C5.71754 32.2748 5.4156 33.4385 5.65333 34.7154L7.61954 34.3493ZM22.3152 44.3295L23.2057 44.1638L22.8396 42.1975L21.9491 42.3633L22.3152 44.3295ZM22.0961 43.557L22.6738 44.9792L24.5268 44.2265L23.9491 42.8043L22.0961 43.557ZM22.6023 44.6656L23.0808 52.2774L25.0768 52.1519L24.5983 44.5401L22.6023 44.6656ZM23.0957 52.3977L23.152 52.7001L25.1182 52.334L25.0619 52.0316L23.0957 52.3977ZM24.3181 53.5002L24.923 53.3876L24.5569 51.4214L23.952 51.534L24.3181 53.5002ZM24.923 53.3876C27.9352 52.8268 31.1074 51.7009 34.4365 50.0292L33.539 48.2419C30.3396 49.8485 27.3467 50.902 24.5569 51.4214L24.923 53.3876ZM33.2683 49.83L34.0221 50.611L35.4611 49.222L34.7073 48.4411L33.2683 49.83ZM33.7585 50.0996C33.8175 50.4164 33.7453 50.5566 33.6241 50.6757C33.4422 50.8543 33.033 51.0775 32.2219 51.2285L32.588 53.1947C33.5578 53.0142 34.4284 52.6891 35.0255 52.1026C35.6831 51.4567 35.8889 50.6152 35.7247 49.7335L33.7585 50.0996ZM32.2219 51.2285C32.0594 51.2588 31.8273 51.335 31.6029 51.4125C31.3494 51.5 31.0155 51.6215 30.6045 51.7754C29.7814 52.0837 28.6281 52.53 27.1472 53.1132L27.88 54.9741C29.3575 54.3922 30.4986 53.9507 31.306 53.6483C31.7103 53.4969 32.0256 53.3823 32.2553 53.3031C32.5141 53.2138 32.5993 53.1926 32.588 53.1947L32.2219 51.2285ZM28.4967 53.8606L28.4404 53.5582L26.4742 53.9242L26.5305 54.2267L28.4967 53.8606ZM26.9166 52.8999C25.752 53.6484 23.4017 54.4004 19.6947 55.0906L20.0608 57.0568C23.7686 56.3665 26.4713 55.5635 27.9979 54.5825L26.9166 52.8999ZM20.5246 55.3111C20.3202 55.1377 20.1909 54.9993 20.1148 54.8975C20.0361 54.7922 20.0427 54.7642 20.0507 54.8073L18.0845 55.1733C18.2101 55.8481 18.7196 56.4026 19.2308 56.8363L20.5246 55.3111ZM20.0601 54.8681C19.6542 51.5718 19.4796 49.1271 19.5204 47.5033C19.5411 46.6822 19.616 46.1381 19.7118 45.8177C19.8316 45.4169 19.866 45.7069 19.5072 45.7737L19.1411 43.8075C18.2894 43.966 17.9436 44.7498 17.7956 45.2449C17.6235 45.8203 17.5432 46.5741 17.5211 47.453C17.4764 49.229 17.6663 51.7925 18.0751 55.1125L20.0601 54.8681ZM19.8454 45.6439C20.5587 45.2083 21.131 44.8811 21.5683 44.6562C21.7869 44.5438 21.9622 44.4619 22.098 44.406C22.1654 44.3782 22.2181 44.3589 22.2577 44.346C22.2986 44.3327 22.3163 44.3293 22.3152 44.3295L21.9491 42.3633C21.5768 42.4326 21.1197 42.6379 20.6536 42.8776C20.1549 43.1341 19.536 43.4893 18.8029 43.9372L19.8454 45.6439ZM54.1194 14.6012L54.8777 13.9493L54.5024 13.5127L53.9364 13.6181L54.1194 14.6012ZM54.644 15.7378L55.0502 16.6516L55.7716 16.3309L55.6271 15.5547L54.644 15.7378ZM43.0103 19.4509L42.7884 20.4259L42.9901 20.4718L43.1934 20.434L43.0103 19.4509ZM41.3098 18.5333L40.4883 17.9629L40.183 18.4027L40.3797 18.9006L41.3098 18.5333ZM60.4258 13.74L60.2427 12.7569L60.1365 12.7767L60.0369 12.8187L60.4258 13.74ZM62.2067 13.4084L63.1898 13.2254L63.0068 12.2423L62.0236 12.4253L62.2067 13.4084ZM63.0336 14.4887L64.0167 14.3056L63.9502 13.9484L63.6699 13.7172L63.0336 14.4887ZM63.3943 18.1068L63.2113 17.1237L61.992 17.3507L62.4724 18.4942L63.3943 18.1068ZM69.0855 18.8899L69.0712 17.89L68.9861 17.8912L68.9024 17.9068L69.0855 18.8899ZM69.9519 20.2757L70.4079 21.1657L71.0715 20.8257L70.935 20.0927L69.9519 20.2757ZM65.951 21.9419L65.6642 22.8999L65.8961 22.9694L66.1341 22.925L65.951 21.9419ZM65.3067 21.749L65.5935 20.791L65.3616 20.7216L65.1236 20.7659L65.3067 21.749ZM64.8092 27.387L64.9923 28.3701L65.9421 28.1932L65.7981 27.2379L64.8092 27.387ZM61.4132 28.9406L61.0674 29.8789L61.5073 30.041L61.9133 29.8065L61.4132 28.9406ZM59.164 28.438L58.1751 28.5864L58.3288 29.6107L59.3471 29.4211L59.164 28.438ZM57.8471 14.8285L58.0301 15.8116L58.1364 15.7918L58.236 15.7498L57.8471 14.8285ZM53.622 20.2392L54.4052 19.6174L53.9888 19.0929L53.3453 19.2782L53.622 20.2392ZM54.0902 21.0733L55.079 21.2223L55.1041 21.0558L55.0733 20.8903L54.0902 21.0733ZM53.9995 23.8542L53.0164 24.0372L53.07 24.3253L53.2707 24.5389L53.9995 23.8542ZM57.4467 27.5235L58.4298 27.3405L58.3761 27.0524L58.1755 26.8388L57.4467 27.5235ZM54.2195 29.9844L54.0243 30.9651L54.2785 31.0157L54.5253 30.9365L54.2195 29.9844ZM52.0236 29.7674L51.8405 28.7843L51.1844 28.9065L51.0455 29.5592L52.0236 29.7674ZM48.3011 32.9289L48.118 31.9458L47.1349 32.1289L47.318 33.112L48.3011 32.9289ZM48.055 33.2877L48.0164 34.2869L48.1281 34.2912L48.238 34.2708L48.055 33.2877ZM48.1717 24.0179L49.1373 24.278L49.5506 22.744L47.9887 23.0348L48.1717 24.0179ZM47.8693 24.0742L47.6863 23.0911L47.6098 23.1053L47.5365 23.1312L47.8693 24.0742ZM44.1177 25.3985L43.1346 25.5815L43.3485 26.7305L44.4505 26.3415L44.1177 25.3985ZM44.0614 25.0961L45.0445 24.913L44.7445 23.3019L43.449 24.3055L44.0614 25.0961ZM43.5296 25.508L43.1943 26.45L43.7096 26.6335L44.142 26.2985L43.5296 25.508ZM42.2805 25.4276L41.2973 25.6107L41.4804 26.5938L42.4635 26.4107L42.2805 25.4276ZM42.1147 24.5372L41.5467 23.7141L41.0128 24.0825L41.1316 24.7202L42.1147 24.5372ZM59.7281 29.8801L60.7112 29.6971L60.4998 28.5615L59.4062 28.9333L59.7281 29.8801ZM59.7812 30.1657L58.7981 30.3488L59.087 31.9002L60.3665 30.9765L59.7812 30.1657ZM60.3329 29.7675L60.1499 28.7844L59.9294 28.8254L59.7476 28.9567L60.3329 29.7675ZM61.579 29.831L60.5959 30.0141L60.8176 31.2053L61.9451 30.7616L61.579 29.831ZM63.0043 29.2701L62.8212 28.287L62.7272 28.3045L62.6381 28.3396L63.0043 29.2701ZM65.0876 28.8823L65.0923 27.8823L64.9976 27.8818L64.9046 27.8992L65.0876 28.8823ZM66.6361 28.8895L67.6192 28.7064L67.4678 27.8933L66.6408 27.8895L66.6361 28.8895ZM57.8565 32.9925L57.9168 33.9907L58.0161 33.9847L58.1122 33.9593L57.8565 32.9925ZM50.6597 34.0195L50.4766 33.0364L50.1063 33.1054L49.8735 33.4016L50.6597 34.0195ZM51.8921 34.103L50.909 34.286L51.2051 35.8767L52.4954 34.9005L51.8921 34.103ZM52.4406 33.688L52.2576 32.7049L52.0255 32.7481L51.8372 32.8905L52.4406 33.688ZM52.743 33.6317L53.6743 33.2674L53.3731 32.4972L52.56 32.6486L52.743 33.6317ZM53.307 35.0738L54.2901 34.8908L54.2728 34.7977L54.2383 34.7096L53.307 35.0738ZM53.2435 36.3198L53.0605 35.3367L52.0774 35.5198L52.2604 36.5029L53.2435 36.3198ZM53.5854 36.5691L54.5815 36.4809L54.4845 35.3845L53.4024 35.586L53.5854 36.5691ZM53.8535 39.5961L52.8574 39.6843L52.8616 39.732L52.8704 39.7791L53.8535 39.5961ZM54.1287 41.0746L53.1456 41.2576L53.3287 42.2407L54.3118 42.0577L54.1287 41.0746ZM55.0755 41.2112L54.7887 42.1692L55.0206 42.2386L55.2586 42.1943L55.0755 41.2112ZM62.3307 35.5493L63.3059 35.7707L63.3516 35.5693L63.3138 35.3663L62.3307 35.5493ZM62.2744 35.2469L63.2575 35.0639L63.0745 34.0807L62.0914 34.2638L62.2744 35.2469ZM56.9711 36.5472L57.011 37.5464L57.1267 37.5417L57.2383 37.5108L56.9711 36.5472ZM58.9127 33.7172L59.8958 33.5342L59.6727 32.3359L58.5411 32.7888L58.9127 33.7172ZM58.969 34.0196L57.9859 34.2027L58.2859 35.8138L59.5814 34.8102L58.969 34.0196ZM59.5008 33.6077L59.3177 32.6246L59.0797 32.6689L58.8884 32.8172L59.5008 33.6077ZM62.5309 33.3565L62.5237 34.3565L62.7216 34.3579L62.9051 34.2838L62.5309 33.3565ZM63.9699 32.7757L63.7868 31.7926L63.6884 31.8109L63.5956 31.8484L63.9699 32.7757ZM64.3286 33.0218L63.3455 33.2048L63.5697 34.4094L64.7049 33.9483L64.3286 33.0218ZM65.7508 32.4441L65.5677 31.461L65.4682 31.4795L65.3744 31.5176L65.7508 32.4441ZM67.8341 32.0562L68.8172 31.8732L68.6342 30.8901L67.6511 31.0731L67.8341 32.0562ZM66.2804 36.9695L65.4205 36.4591L65.3223 36.6245L65.2925 36.8146L66.2804 36.9695ZM65.9999 40.4115L65.0168 40.5945L65.1999 41.5777L66.183 41.3946L65.9999 40.4115ZM67.3638 36.1594L67.1808 35.1763L66.418 35.3183L66.3661 36.0924L67.3638 36.1594ZM67.9687 36.0468L68.1425 35.062L67.9639 35.0305L67.7856 35.0637L67.9687 36.0468ZM70.3273 37.1374L69.7677 37.9661L70.3675 38.3712L70.9397 37.9279L70.3273 37.1374ZM70.859 36.7255L70.676 35.7424L70.438 35.7867L70.2466 35.9349L70.859 36.7255ZM71.7495 36.5597L72.7326 36.3767L72.5495 35.3935L71.5664 35.5766L71.7495 36.5597ZM64.5266 44.0756L64.5272 45.0756L64.7147 45.0755L64.8894 45.0074L64.5266 44.0756ZM60.6009 41.1038L61.584 40.9208L61.335 39.5833L60.1328 40.2201L60.6009 41.1038ZM51.1038 44.7146L50.1207 44.8977L50.3037 45.8808L51.2868 45.6978L51.1038 44.7146ZM51.0506 44.429L52.0337 44.246L51.7413 42.6755L50.4564 43.6247L51.0506 44.429ZM50.5157 44.8241L50.6988 45.8072L50.9249 45.7651L51.1099 45.6285L50.5157 44.8241ZM50.2133 44.8804L49.9331 45.8404L50.1619 45.9072L50.3964 45.8635L50.2133 44.8804ZM53.3612 15.2531C53.4995 15.4141 53.6059 15.6256 53.6608 15.9208L55.6271 15.5547C55.5152 14.9539 55.2719 14.4077 54.8777 13.9493L53.3612 15.2531ZM54.2377 14.824C50.307 16.5713 46.504 17.7832 42.8273 18.4678L43.1934 20.434C47.0436 19.7171 50.9963 18.4537 55.0502 16.6516L54.2377 14.824ZM43.2323 18.4758C42.7869 18.3744 42.4972 18.2671 42.3249 18.1741C42.1417 18.0753 42.1939 18.0496 42.2398 18.1659L40.3797 18.9006C40.5791 19.4056 40.9914 19.7272 41.3751 19.9342C41.7697 20.1471 42.2535 20.3042 42.7884 20.4259L43.2323 18.4758ZM42.1312 19.1036C42.1842 19.0273 42.4082 18.8156 43.013 18.5192C43.5835 18.2397 44.3802 17.9377 45.4225 17.6178C47.5039 16.9789 50.4577 16.3001 54.3025 15.5843L53.9364 13.6181C50.0638 14.3391 47.024 15.0341 44.8356 15.7059C43.7429 16.0413 42.8356 16.3789 42.133 16.7232C41.4647 17.0507 40.8466 17.447 40.4883 17.9629L42.1312 19.1036ZM60.6088 14.7231L62.3897 14.3915L62.0236 12.4253L60.2427 12.7569L60.6088 14.7231ZM61.2236 13.5915C61.351 14.2759 61.8771 14.831 62.3973 15.2601L63.6699 13.7172C63.4603 13.5443 63.3284 13.4066 63.2513 13.3059C63.1713 13.2014 63.1807 13.1765 63.1898 13.2254L61.2236 13.5915ZM62.0505 14.6717L62.6574 17.9311L64.6236 17.5651L64.0167 14.3056L62.0505 14.6717ZM62.6574 17.9311C62.6479 17.8804 62.6206 17.6593 62.7825 17.4233C62.9444 17.1872 63.1606 17.1332 63.2113 17.1237L63.5774 19.0899C63.8297 19.043 64.1877 18.9103 64.4317 18.5547C64.6757 18.1991 64.6705 17.8174 64.6236 17.5651L62.6574 17.9311ZM62.4724 18.4942C62.7221 19.0884 62.9819 19.5991 63.2614 19.9685C63.4008 20.1527 63.5812 20.3508 63.8119 20.4984C64.0544 20.6537 64.3993 20.7796 64.7994 20.7051L64.4333 18.7389C64.6655 18.6956 64.8334 18.7777 64.8901 18.814C64.9349 18.8427 64.9206 18.8467 64.8563 18.7617C64.7285 18.5928 64.5453 18.2646 64.3163 17.7195L62.4724 18.4942ZM64.7994 20.7051L69.2685 19.873L68.9024 17.9068L64.4333 18.7389L64.7994 20.7051ZM69.0998 19.8898C69.1754 19.8887 69.1012 19.9069 68.9868 19.8259C68.9279 19.7843 68.8797 19.7306 68.8462 19.674C68.8144 19.6202 68.8051 19.5795 68.803 19.5683L70.7692 19.2022C70.7002 18.8315 70.5112 18.4543 70.1413 18.1929C69.7933 17.9468 69.4001 17.8853 69.0712 17.89L69.0998 19.8898ZM68.803 19.5683L68.9688 20.4588L70.935 20.0927L70.7692 19.2022L68.803 19.5683ZM69.4959 19.3857C67.602 20.3561 66.3896 20.8431 65.768 20.9588L66.1341 22.925C67.0806 22.7488 68.5354 22.125 70.4079 21.1657L69.4959 19.3857ZM66.2379 20.984L65.5935 20.791L65.0198 22.707L65.6642 22.8999L66.2379 20.984ZM65.1236 20.7659C64.5147 20.8793 64.1193 21.2946 63.893 21.7392C63.6794 22.1588 63.5773 22.6671 63.5309 23.1926C63.4373 24.2538 63.5463 25.7177 63.8204 27.536L65.7981 27.2379C65.5301 25.4602 65.451 24.1865 65.5232 23.3684C65.5597 22.9542 65.6291 22.7374 65.6753 22.6465C65.7088 22.5807 65.6619 22.7001 65.4897 22.7321L65.1236 20.7659ZM64.6262 26.4038C63.7422 26.5684 62.4737 27.1733 60.9131 28.0746L61.9133 29.8065C63.4918 28.8949 64.4874 28.4641 64.9923 28.3701L64.6262 26.4038ZM61.7589 28.0022C61.1831 27.7901 60.6731 27.6301 60.2384 27.533C59.8312 27.442 59.3827 27.3801 58.981 27.4549L59.3471 29.4211C59.3374 29.4229 59.4598 29.4083 59.8023 29.4848C60.1173 29.5552 60.5359 29.683 61.0674 29.8789L61.7589 28.0022ZM60.153 28.2896C59.4793 23.8008 59.0357 20.4414 58.8188 18.2003C58.7099 17.0743 58.6612 16.2599 58.6647 15.7352C58.6666 15.4646 58.6825 15.3222 58.6934 15.2685C58.6998 15.2366 58.6934 15.2929 58.6442 15.3818C58.6003 15.4609 58.4228 15.7385 58.0301 15.8116L57.664 13.8454C57.2125 13.9295 56.9833 14.2528 56.8949 14.4123C56.801 14.5817 56.7571 14.7532 56.7332 14.8713C56.6833 15.1175 56.6669 15.4142 56.6648 15.7216C56.6605 16.3529 56.7176 17.2506 56.8281 18.3929C57.0503 20.6882 57.5003 24.0898 58.1751 28.5864L60.153 28.2896ZM58.236 15.7498L60.8147 14.6613L60.0369 12.8187L57.4582 13.9072L58.236 15.7498ZM52.8388 20.8609C52.9533 21.0051 53.027 21.1155 53.0714 21.1946C53.1188 21.279 53.1144 21.2954 53.1071 21.2564L55.0733 20.8903C54.9863 20.423 54.6954 19.983 54.4052 19.6174L52.8388 20.8609ZM53.1014 20.9244C52.9149 22.1623 52.8645 23.2215 53.0164 24.0372L54.9826 23.6711C54.8926 23.1875 54.9027 22.3929 55.079 21.2223L53.1014 20.9244ZM53.2707 24.5389L56.7178 28.2082L58.1755 26.8388L54.7283 23.1695L53.2707 24.5389ZM56.4635 27.7065L56.5762 28.3114L58.5424 27.9453L58.4298 27.3405L56.4635 27.7065ZM56.5762 28.3114C56.5168 27.9928 56.692 27.8164 56.6659 27.8449C56.6435 27.8692 56.5471 27.9546 56.3074 28.0879C55.8385 28.3484 55.056 28.6654 53.9137 29.0323L54.5253 30.9365C55.7013 30.5588 56.6345 30.1942 57.2789 29.8361C57.5958 29.66 57.9054 29.4518 58.1384 29.1982C58.3676 28.9488 58.6476 28.5103 58.5424 27.9453L56.5762 28.3114ZM54.4147 29.0036C53.8552 28.8923 53.3667 28.8138 52.9565 28.7733C52.5648 28.7346 52.173 28.7224 51.8405 28.7843L52.2066 30.7505C52.255 30.7415 52.4195 30.73 52.7599 30.7636C53.0816 30.7954 53.5007 30.8609 54.0243 30.9651L54.4147 29.0036ZM51.0455 29.5592C50.9054 30.2174 50.6109 30.7081 50.1721 31.0807C49.7207 31.4641 49.0587 31.7707 48.118 31.9458L48.4841 33.912C49.6604 33.693 50.6773 33.2756 51.4667 32.6051C52.2688 31.924 52.777 31.031 53.0017 29.9756L51.0455 29.5592ZM47.318 33.112C47.3085 33.0612 47.2812 32.8401 47.4431 32.6041C47.605 32.368 47.8212 32.314 47.8719 32.3045L48.238 34.2708C48.4903 34.2238 48.8483 34.0912 49.0923 33.7356C49.3363 33.3799 49.3312 32.9982 49.2842 32.7459L47.318 33.112ZM48.0935 32.2884C47.5015 32.2655 47.1279 32.2094 46.9227 32.1488C46.8195 32.1184 46.8164 32.103 46.8575 32.1335C46.9092 32.1718 47.0452 32.2976 47.0882 32.5289L45.122 32.895C45.1964 33.2943 45.437 33.5702 45.6668 33.7404C45.8861 33.9029 46.1345 34.0015 46.3563 34.067C46.801 34.1983 47.371 34.262 48.0164 34.2869L48.0935 32.2884ZM47.0882 32.5289C47.1094 32.6427 47.0913 32.6907 47.1065 32.556C47.1172 32.4612 47.1389 32.32 47.1752 32.1246C47.2475 31.7359 47.3675 31.1859 47.5384 30.4673C47.8793 29.0329 48.4117 26.9716 49.1373 24.278L47.2062 23.7578C46.479 26.457 45.9405 28.5411 45.5926 30.0048C45.419 30.7351 45.2901 31.3223 45.2089 31.759C45.1685 31.9762 45.1374 32.1697 45.1191 32.3316C45.1053 32.4536 45.0821 32.6804 45.122 32.895L47.0882 32.5289ZM47.9887 23.0348L47.6863 23.0911L48.0524 25.0573L48.3548 25.001L47.9887 23.0348ZM47.5365 23.1312L43.7848 24.4555L44.4505 26.3415L48.2022 25.0172L47.5365 23.1312ZM45.1008 25.2154L45.0445 24.913L43.0783 25.2791L43.1346 25.5815L45.1008 25.2154ZM43.449 24.3055L42.9172 24.7174L44.142 26.2985L44.6738 25.8866L43.449 24.3055ZM43.865 24.5659C43.2954 24.3631 42.6983 24.3327 42.0974 24.4445L42.4635 26.4107C42.7587 26.3558 42.9943 26.3789 43.1943 26.45L43.865 24.5659ZM43.2636 25.2446L43.0978 24.3541L41.1316 24.7202L41.2973 25.6107L43.2636 25.2446ZM42.6826 25.3602C43.392 24.8707 44.6617 24.2656 46.566 23.5543C48.4507 22.8504 50.8925 22.0656 53.8986 21.2001L53.3453 19.2782C50.3128 20.1512 47.8173 20.952 45.8662 21.6808C43.9348 22.4022 42.4701 23.0769 41.5467 23.7141L42.6826 25.3602ZM58.745 30.0631L58.7981 30.3488L60.7643 29.9827L60.7112 29.6971L58.745 30.0631ZM60.3665 30.9765L60.9182 30.5783L59.7476 28.9567L59.1959 29.3549L60.3665 30.9765ZM60.5159 30.7506L60.8016 30.6974L60.4355 28.7312L60.1499 28.7844L60.5159 30.7506ZM60.8016 30.6974C60.9288 30.6737 61.0264 30.6608 61.0982 30.6551C61.1735 30.6491 61.1999 30.6527 61.1916 30.6517C61.1859 30.651 61.1615 30.6478 61.1243 30.6363C61.0874 30.625 61.0269 30.6021 60.957 30.557C60.8851 30.5106 60.8032 30.4405 60.7327 30.3396C60.661 30.2371 60.6164 30.1245 60.5959 30.0141L62.5621 29.648C62.4167 28.867 61.6942 28.6981 61.4329 28.6663C61.1175 28.628 60.7646 28.6699 60.4355 28.7312L60.8016 30.6974ZM61.9451 30.7616L63.3705 30.2007L62.6381 28.3396L61.2128 28.9005L61.9451 30.7616ZM63.1873 30.2532L65.2707 29.8654L64.9046 27.8992L62.8212 28.287L63.1873 30.2532ZM65.083 29.8822L66.6314 29.8895L66.6408 27.8895L65.0923 27.8823L65.083 29.8822ZM65.653 29.0725L65.7093 29.3749L67.6755 29.0089L67.6192 28.7064L65.653 29.0725ZM65.7093 29.3749C65.6412 29.0091 65.9247 28.9243 65.6165 29.1686C65.3736 29.3611 64.9277 29.6155 64.2181 29.9207C62.8153 30.5241 60.6209 31.2268 57.6007 32.0258L58.1122 33.9593C61.1558 33.1541 63.4659 32.4214 65.0084 31.7579C65.7714 31.4297 66.4084 31.0928 66.8585 30.7362C67.2434 30.4313 67.8302 29.8395 67.6755 29.0089L65.7093 29.3749ZM57.7961 31.9944C56.8071 32.0542 56.1366 32.0251 55.7323 31.9442C55.5287 31.9035 55.461 31.8624 55.4643 31.8646C55.4867 31.8791 55.6074 31.9752 55.6437 32.1703L53.6775 32.5364C53.7649 33.0058 54.0571 33.3344 54.3713 33.5394C54.6664 33.7321 55.011 33.8395 55.3401 33.9053C56.001 34.0375 56.8774 34.0536 57.9168 33.9907L57.7961 31.9944ZM55.6437 32.1703C55.6945 32.4433 55.5928 32.6374 55.554 32.6982C55.5177 32.7551 55.4995 32.7581 55.5567 32.7118C55.6688 32.6212 55.9 32.4763 56.3004 32.2809C57.0866 31.8971 58.327 31.4127 60.05 30.8269L59.4062 28.9333C57.6632 29.5259 56.3261 30.0428 55.4232 30.4835C54.9789 30.7003 54.5876 30.9234 54.2993 31.1565C54.1564 31.2721 53.9935 31.4258 53.868 31.6225C53.74 31.823 53.6047 32.1457 53.6775 32.5364L55.6437 32.1703ZM50.8427 35.0027L51.7332 34.8369L51.3671 32.8707L50.4766 33.0364L50.8427 35.0027ZM51.7332 34.8369C51.662 34.8501 51.4278 34.8714 51.1894 34.6976C50.9628 34.5324 50.9159 34.3232 50.909 34.286L52.8752 33.92C52.8307 33.6812 52.708 33.3296 52.3675 33.0814C52.015 32.8245 51.6287 32.822 51.3671 32.8707L51.7332 34.8369ZM52.4954 34.9005L53.044 34.4854L51.8372 32.8905L51.2887 33.3055L52.4954 34.9005ZM52.6236 34.6711L52.9261 34.6148L52.56 32.6486L52.2576 32.7049L52.6236 34.6711ZM51.8117 33.9959L52.3757 35.438L54.2383 34.7096L53.6743 33.2674L51.8117 33.9959ZM52.3239 35.2568L52.4897 36.1473L54.4559 35.7812L54.2901 34.8908L52.3239 35.2568ZM52.4897 36.1473C52.4828 36.1101 52.4513 35.898 52.6032 35.6624C52.7632 35.4144 52.9893 35.35 53.0605 35.3367L53.4265 37.303C53.6881 37.2543 54.0477 37.1129 54.2841 36.7463C54.5124 36.3922 54.5004 36.02 54.4559 35.7812L52.4897 36.1473ZM52.2604 36.5029C52.3049 36.7417 52.4276 37.0932 52.7681 37.3415C53.1205 37.5984 53.5069 37.6009 53.7685 37.5522L53.4024 35.586C53.4735 35.5727 53.7077 35.5514 53.9462 35.7253C54.1727 35.8904 54.2197 36.0996 54.2266 36.1368L52.2604 36.5029ZM52.5893 36.6573L52.8574 39.6843L54.8496 39.5079L54.5815 36.4809L52.5893 36.6573ZM52.8704 39.7791L53.1456 41.2576L55.1119 40.8915L54.8366 39.413L52.8704 39.7791ZM54.3118 42.0577C54.2626 42.0668 54.2711 42.0555 54.3738 42.0703C54.4678 42.0839 54.6037 42.1138 54.7887 42.1692L55.3624 40.2532C54.9203 40.1209 54.4023 40.0065 53.9457 40.0915L54.3118 42.0577ZM55.2586 42.1943C59.6322 41.38 62.5027 39.3085 63.3059 35.7707L61.3555 35.3279C60.7961 37.7919 58.8298 39.495 54.8925 40.2281L55.2586 42.1943ZM63.3138 35.3663L63.2575 35.0639L61.2913 35.4299L61.3476 35.7323L63.3138 35.3663ZM62.0914 34.2638L61.7889 34.3201L62.155 36.2863L62.4574 36.23L62.0914 34.2638ZM61.7889 34.3201C60.7014 34.5226 58.9986 34.9475 56.704 35.5835L57.2383 37.5108C59.5281 36.8761 61.1592 36.4717 62.155 36.2863L61.7889 34.3201ZM56.9312 35.548C56.2441 35.5754 55.8036 35.5434 55.5571 35.4883C55.433 35.4606 55.4236 35.4408 55.466 35.4696C55.5259 35.5104 55.6631 35.6359 55.7051 35.8615L53.7389 36.2276C53.8174 36.6492 54.0757 36.9428 54.3412 37.1234C54.5893 37.2921 54.8702 37.3842 55.121 37.4402C55.6241 37.5526 56.2718 37.5759 57.011 37.5464L56.9312 35.548ZM55.7051 35.8615C55.755 36.1295 55.6608 36.3218 55.6241 36.3841C55.588 36.4453 55.5651 36.4562 55.6073 36.4186C55.6901 36.3447 55.8715 36.2164 56.1989 36.0345C56.8408 35.6781 57.86 35.2157 59.2843 34.6456L58.5411 32.7888C57.0965 33.3671 55.9829 33.8668 55.2279 34.2861C54.8568 34.4922 54.5237 34.7051 54.2761 34.926C54.153 35.0358 54.011 35.1824 53.9016 35.3677C53.7916 35.5541 53.6702 35.8588 53.7389 36.2276L55.7051 35.8615ZM57.9296 33.9003L57.9859 34.2027L59.9521 33.8366L59.8958 33.5342L57.9296 33.9003ZM59.5814 34.8102L60.1131 34.3983L58.8884 32.8172L58.3566 33.2291L59.5814 34.8102ZM59.6838 34.5908C60.5546 34.4287 61.5004 34.3492 62.5237 34.3565L62.538 32.3565C61.4029 32.3484 60.3286 32.4364 59.3177 32.6246L59.6838 34.5908ZM62.9051 34.2838L64.3441 33.703L63.5956 31.8484L62.1566 32.4292L62.9051 34.2838ZM64.1529 33.7588C64.1022 33.7682 63.881 33.7956 63.645 33.6336C63.409 33.4717 63.3549 33.2556 63.3455 33.2048L65.3117 32.8387C65.2647 32.5864 65.1321 32.2284 64.7765 31.9845C64.4209 31.7405 64.0392 31.7456 63.7868 31.7926L64.1529 33.7588ZM64.7049 33.9483L66.1271 33.3706L65.3744 31.5176L63.9522 32.0953L64.7049 33.9483ZM65.9338 33.4272L68.0171 33.0393L67.6511 31.0731L65.5677 31.461L65.9338 33.4272ZM66.851 32.2393L66.9073 32.5417L68.8735 32.1756L68.8172 31.8732L66.851 32.2393ZM66.9073 32.5417C66.9505 32.7735 66.9229 33.2036 66.6783 33.9041C66.44 34.5867 66.0281 35.4354 65.4205 36.4591L67.1404 37.4799C67.7854 36.393 68.2682 35.4179 68.5665 34.5635C68.8586 33.727 69.0097 32.907 68.8735 32.1756L66.9073 32.5417ZM65.2925 36.8146C65.1501 37.7222 65.0525 38.4836 65.003 39.0918C64.9557 39.672 64.9435 40.2008 65.0168 40.5945L66.983 40.2285C66.9625 40.1182 66.9502 39.8213 66.9964 39.2542C67.0403 38.715 67.1299 38.0075 67.2683 37.1244L65.2925 36.8146ZM66.183 41.3946C66.678 41.3025 67.041 41.0027 67.2903 40.6754C67.5333 40.3563 67.707 39.9641 67.8392 39.5522C68.1037 38.7274 68.2692 37.6026 68.3616 36.2264L66.3661 36.0924C66.2772 37.4154 66.1248 38.3488 65.9347 38.9414C65.8395 39.2382 65.7518 39.3945 65.6991 39.4636C65.6528 39.5245 65.6859 39.4528 65.8169 39.4284L66.183 41.3946ZM67.5469 37.1425L68.1517 37.0299L67.7856 35.0637L67.1808 35.1763L67.5469 37.1425ZM67.7948 37.0315C68.2698 37.1154 68.9211 37.3945 69.7677 37.9661L70.8869 36.3086C69.9307 35.663 69.0096 35.215 68.1425 35.062L67.7948 37.0315ZM70.9397 37.9279L71.4714 37.516L70.2466 35.9349L69.7149 36.3468L70.9397 37.9279ZM71.042 37.7086L71.9325 37.5428L71.5664 35.5766L70.676 35.7424L71.042 37.7086ZM70.7664 36.7427L70.9321 37.6332L72.8984 37.2671L72.7326 36.3767L70.7664 36.7427ZM70.9321 37.6332C71.0614 38.3275 70.8114 39.1358 69.7258 40.1093C68.6266 41.095 66.8016 42.1165 64.1637 43.1438L64.8894 45.0074C67.6111 43.9475 69.6973 42.8212 71.061 41.5983C72.4383 40.3633 73.2028 38.9026 72.8984 37.2671L70.9321 37.6332ZM64.526 43.0756C63.5205 43.0762 62.8606 42.8756 62.441 42.5861C62.0479 42.3149 61.7658 41.8977 61.6403 41.2232L59.6741 41.5893C59.8801 42.6957 60.4087 43.6138 61.3053 44.2324C62.1756 44.8327 63.2846 45.0763 64.5272 45.0756L64.526 43.0756ZM61.6403 41.2232L61.584 40.9208L59.6178 41.2868L59.6741 41.5893L61.6403 41.2232ZM60.1328 40.2201C56.6102 42.0861 53.5432 43.2433 50.9207 43.7315L51.2868 45.6978C54.1751 45.16 57.4395 43.91 61.069 41.9875L60.1328 40.2201ZM52.0869 44.5316L52.0337 44.246L50.0675 44.6121L50.1207 44.8977L52.0869 44.5316ZM50.4564 43.6247L49.9216 44.0198L51.1099 45.6285L51.6448 45.2334L50.4564 43.6247ZM50.3327 43.841L50.0303 43.8973L50.3964 45.8635L50.6988 45.8072L50.3327 43.841ZM50.4936 43.9205C50.0877 43.802 49.8224 43.6311 49.6448 43.4394C49.469 43.2496 49.3309 42.9875 49.2601 42.6068L47.2939 42.9729C47.4232 43.6675 47.7079 44.2915 48.1775 44.7985C48.6454 45.3036 49.2483 45.6404 49.9331 45.8404L50.4936 43.9205ZM49.2601 42.6068C48.8024 40.1489 48.6507 38.3648 48.7546 37.1995C48.8067 36.6143 48.9169 36.2689 49.0203 36.086C49.1045 35.9371 49.1506 35.9435 49.1576 35.9422L48.7915 33.976C48.1041 34.104 47.6003 34.5336 47.2791 35.1019C46.9771 35.6363 46.8266 36.302 46.7624 37.022C46.6337 38.4669 46.8277 40.4689 47.2939 42.9729L49.2601 42.6068ZM49.1576 35.9422C50.0832 35.7699 50.8817 35.3553 51.4459 34.6375L49.8735 33.4016C49.6693 33.6613 49.3445 33.873 48.7915 33.976L49.1576 35.9422ZM93.3795 10.0731L94.3059 9.69673L93.9988 8.94057L93.1964 9.08996L93.3795 10.0731ZM93.9572 11.4953L94.9403 11.3122L94.9217 11.2127L94.8836 11.1189L93.9572 11.4953ZM94.7329 15.662L93.7498 15.845L93.9328 16.8281L94.9159 16.6451L94.7329 15.662ZM96.4575 15.028L96.7557 14.0735L96.2262 13.908L95.8056 14.2697L96.4575 15.028ZM97.4043 15.1646L97.5873 16.1477L97.8194 16.1045L98.0077 15.9621L97.4043 15.1646ZM97.9528 14.7496L98.1518 13.7696L97.7094 13.6797L97.3495 13.9521L97.9528 14.7496ZM100.149 14.9665L101.132 14.7835L100.949 13.8004L99.9657 13.9834L100.149 14.9665ZM95.7651 17.9382L95.9482 18.9213L95.9689 18.9175L95.9895 18.9127L95.7651 17.9382ZM94.8747 18.104L94.6916 17.1209L93.8409 17.2793L93.8755 18.1439L94.8747 18.104ZM94.9601 20.2437L93.9609 20.2836L93.9661 20.4141L94.0047 20.5389L94.9601 20.2437ZM95.8162 23.1612L96.3661 23.9964L96.9209 23.6311L96.7993 22.9781L95.8162 23.1612ZM91.2273 24.9369L90.549 25.6716L90.9174 26.0117L91.4103 25.92L91.2273 24.9369ZM90.1147 23.9098L89.1316 24.0928L89.1924 24.4193L89.4364 24.6445L90.1147 23.9098ZM91.0469 10.8029L91.2299 11.786L91.4891 11.7377L91.6908 11.568L91.0469 10.8029ZM80.9326 12.686L81.2807 11.7485L80.9169 11.6135L80.5573 11.7591L80.9326 12.686ZM84.238 13.9132L84.9483 13.2094L84.793 13.0526L84.586 12.9758L84.238 13.9132ZM86.6216 18.4064L87.5948 18.6364L87.6434 18.4309L87.6048 18.2233L86.6216 18.4064ZM80.479 25.0953L80.296 24.1122L79.3129 24.2953L79.4959 25.2784L80.479 25.0953ZM73.4532 22.0923L72.4701 22.2753L72.4808 22.3326L72.4981 22.3883L73.4532 22.0923ZM78.0714 13.8445L77.6961 12.9176L77.5567 12.974L77.4401 13.0689L78.0714 13.8445ZM79.037 17.35L78.8539 16.3669L78.2888 16.4721L78.0953 17.0134L79.037 17.35ZM79.9253 22.1215L79.628 23.0763L79.8647 23.15L80.1084 23.1046L79.9253 22.1215ZM80.8158 21.9558L80.9988 22.9389L81.614 22.8243L81.78 22.221L80.8158 21.9558ZM92.672 11.222L93.5625 11.0562L93.1964 9.08996L92.306 9.25574L92.672 11.222ZM92.453 10.4494L93.0307 11.8716L94.8836 11.1189L94.3059 9.69673L92.453 10.4494ZM92.974 11.6783L93.7498 15.845L95.716 15.4789L94.9403 11.3122L92.974 11.6783ZM94.9159 16.6451L95.504 16.5356L95.1379 14.5694L94.5499 14.6789L94.9159 16.6451ZM95.504 16.5356C96.1049 16.4237 96.651 16.1804 97.1095 15.7862L95.8056 14.2697C95.6447 14.4081 95.4331 14.5144 95.1379 14.5694L95.504 16.5356ZM96.1593 15.9825C96.6048 16.1216 97.1201 16.2347 97.5873 16.1477L97.2213 14.1815C97.2603 14.1742 97.2466 14.1842 97.1508 14.1704C97.0611 14.1575 96.9315 14.1284 96.7557 14.0735L96.1593 15.9825ZM98.0077 15.9621L98.5562 15.547L97.3495 13.9521L96.8009 14.3671L98.0077 15.9621ZM97.7539 15.7296C98.3088 15.8422 98.7957 15.9215 99.2074 15.9622C99.6024 16.0012 99.9955 16.0123 100.332 15.9496L99.9657 13.9834C99.91 13.9938 99.7411 14.0052 99.4041 13.9719C99.0838 13.9402 98.6688 13.8745 98.1518 13.7696L97.7539 15.7296ZM99.1657 15.1496L99.2752 15.7376L101.242 15.3715L101.132 14.7835L99.1657 15.1496ZM99.2752 15.7376C99.2505 15.605 99.316 15.5278 99.2895 15.5607C99.2427 15.6188 99.1044 15.7454 98.7868 15.9139C98.1562 16.2485 97.096 16.6057 95.5408 16.9637L95.9895 18.9127C97.5903 18.5442 98.8569 18.1407 99.7241 17.6807C100.155 17.452 100.559 17.1728 100.846 16.8167C101.154 16.4353 101.347 15.9354 101.242 15.3715L99.2752 15.7376ZM95.5821 16.9551L94.6916 17.1209L95.0577 19.0871L95.9482 18.9213L95.5821 16.9551ZM93.8755 18.1439L93.9609 20.2836L95.9593 20.2038L95.8739 18.0641L93.8755 18.1439ZM94.0047 20.5389C94.2666 21.3865 94.4675 22.049 94.6082 22.5285C94.6787 22.7686 94.733 22.9592 94.7719 23.1025C94.7914 23.1741 94.8062 23.231 94.817 23.2746C94.8224 23.2963 94.8263 23.3132 94.8292 23.3258C94.8321 23.339 94.8332 23.3445 94.8331 23.3442L96.7993 22.9781C96.7398 22.6582 96.4282 21.6074 95.9156 19.9484L94.0047 20.5389ZM95.2663 22.3259C94.0921 23.099 92.6912 23.6471 91.0443 23.9538L91.4103 25.92C93.2805 25.5718 94.9388 24.9361 96.3661 23.9964L95.2663 22.3259ZM91.9056 24.2021L90.7931 23.175L89.4364 24.6445L90.549 25.6716L91.9056 24.2021ZM91.0978 23.7267L90.6005 21.0554L88.6343 21.4214L89.1316 24.0928L91.0978 23.7267ZM90.6005 21.0554C89.9958 17.8076 89.8346 15.4276 90.0505 13.8509C90.2705 12.245 90.7994 11.8661 91.2299 11.786L90.8638 9.81976C89.1214 10.1442 88.3256 11.7069 88.069 13.5795C87.8085 15.4812 88.019 18.1167 88.6343 21.4214L90.6005 21.0554ZM91.6908 11.568C91.7959 11.4795 92.0753 11.3331 92.672 11.222L92.306 9.25574C91.581 9.39072 90.899 9.6203 90.403 10.0378L91.6908 11.568ZM80.5845 13.6234L83.8899 14.8507L84.586 12.9758L81.2807 11.7485L80.5845 13.6234ZM83.5276 14.6171C84.6619 15.7618 85.3575 17.0799 85.6385 18.5894L87.6048 18.2233C87.2477 16.3054 86.3542 14.6281 84.9483 13.2094L83.5276 14.6171ZM85.6485 18.1763C85.2189 19.9938 84.5412 21.3472 83.6639 22.3025C82.7969 23.2466 81.6892 23.8528 80.296 24.1122L80.6621 26.0784C82.4498 25.7456 83.9564 24.9409 85.137 23.6553C86.3072 22.381 87.1104 20.686 87.5948 18.6364L85.6485 18.1763ZM79.4959 25.2784C79.4381 24.9679 79.5496 24.7204 79.6462 24.5858C79.7305 24.4681 79.8162 24.4132 79.8288 24.405C79.8568 24.3869 79.8286 24.4092 79.6832 24.4574C79.4117 24.5474 78.95 24.6584 78.2658 24.7857L78.6319 26.7519C79.3366 26.6207 79.9077 26.4901 80.3129 26.3557C80.5059 26.2916 80.727 26.2059 80.9153 26.0841C81.0081 26.0241 81.1517 25.9183 81.2717 25.7509C81.4039 25.5665 81.5288 25.2704 81.4621 24.9123L79.4959 25.2784ZM78.2658 24.7857C77.2649 24.9721 76.5363 24.8006 75.9698 24.3837C75.3733 23.9447 74.8235 23.1357 74.4084 21.7963L72.4981 22.3883C72.9828 23.9525 73.7156 25.208 74.7843 25.9945C75.883 26.8031 77.2022 27.0181 78.6319 26.7519L78.2658 24.7857ZM74.4363 21.9093L74.38 21.6068L72.4138 21.9729L72.4701 22.2753L74.4363 21.9093ZM74.38 21.6068C74.0439 19.8012 75.1759 17.4909 78.7027 14.62L77.4401 13.0689C73.8418 15.998 71.8575 18.9846 72.4138 21.9729L74.38 21.6068ZM78.4467 14.7714L81.3079 13.6129L80.5573 11.7591L77.6961 12.9176L78.4467 14.7714ZM78.0953 17.0134C77.6452 18.2725 77.4988 19.5004 77.7171 20.6726L79.6833 20.3066C79.5429 19.5523 79.621 18.6871 79.9786 17.6866L78.0953 17.0134ZM77.7171 20.6726L77.8829 21.5631L79.8491 21.197L79.6833 20.3066L77.7171 20.6726ZM77.8829 21.5631C77.976 22.0633 78.3043 22.3975 78.5981 22.6031C78.8936 22.8099 79.2539 22.9598 79.628 23.0763L80.2227 21.1668C79.9447 21.0802 79.8025 21.0049 79.7449 20.9646C79.6856 20.9231 79.8102 20.988 79.8491 21.197L77.8829 21.5631ZM80.1084 23.1046L80.9988 22.9389L80.6328 20.9726L79.7423 21.1384L80.1084 23.1046ZM81.78 22.221C81.9672 21.5405 82.1051 20.961 82.1872 20.4916C82.2623 20.0618 82.3156 19.5992 82.2452 19.2212L80.279 19.5872C80.2774 19.5789 80.2907 19.7263 80.2171 20.147C80.1504 20.5282 80.0307 21.0396 79.8516 21.6905L81.78 22.221ZM82.2452 19.2212L82.1326 18.6163L80.1664 18.9824L80.279 19.5872L82.2452 19.2212ZM82.1326 18.6163C81.9938 17.8711 81.6692 17.1665 81.0213 16.722C80.3734 16.2775 79.5991 16.2282 78.8539 16.3669L79.22 18.3331C79.6621 18.2508 79.8336 18.3326 79.8898 18.3712C79.9461 18.4098 80.0841 18.5403 80.1664 18.9824L82.1326 18.6163ZM110.383 5.04731L110.674 4.09057L110.407 4.00922L110.136 4.07843L110.383 5.04731ZM116.804 8.16296L116.297 9.02457L116.619 9.2146L116.987 9.14607L116.804 8.16296ZM117.409 8.05035L117.592 9.03346L118.048 8.94861L118.278 8.54597L117.409 8.05035ZM120.885 5.24756L121.028 4.25781L120.865 4.23422L120.702 4.26445L120.885 5.24756ZM117.91 10.7385L118.418 11.5995L118.462 11.5737L118.503 11.5437L117.91 10.7385ZM111.723 10.6561L112.484 10.0071L112.346 9.84528L112.154 9.75365L111.723 10.6561ZM108.003 8.88033L108.433 7.97786L108.14 7.83764L107.82 7.89722L108.003 8.88033ZM106.324 11.3484L106.849 12.1993L107.247 11.9535L107.314 11.4905L106.324 11.3484ZM102.911 12.9052L101.928 13.0882L102.111 14.0713L103.094 13.8883L102.911 12.9052ZM110.092 6.00406C111.536 6.44297 113.593 7.43205 116.297 9.02457L117.312 7.30136C114.574 5.68849 112.351 4.60047 110.674 4.09057L110.092 6.00406ZM116.987 9.14607L117.592 9.03346L117.226 7.06725L116.621 7.17986L116.987 9.14607ZM118.278 8.54597C119.096 7.11146 120.039 6.42235 121.068 6.23067L120.702 4.26445C118.932 4.59412 117.557 5.77354 116.54 7.55474L118.278 8.54597ZM120.743 6.23731C120.877 6.25665 120.983 6.27723 121.064 6.29731C121.148 6.31786 121.192 6.3346 121.209 6.34173C121.229 6.35084 121.185 6.33569 121.121 6.27597C121.05 6.20949 120.944 6.07514 120.905 5.86965L122.872 5.50358C122.757 4.88951 122.25 4.61426 122.011 4.50955C121.722 4.38317 121.377 4.30816 121.028 4.25781L120.743 6.23731ZM120.905 5.86965C120.941 6.06242 120.885 6.49696 120.282 7.26331C119.699 8.00345 118.728 8.8938 117.316 9.93342L118.503 11.5437C119.976 10.4586 121.11 9.44464 121.853 8.5008C122.576 7.58318 123.067 6.55409 122.872 5.50358L120.905 5.86965ZM117.401 9.87759C116.406 10.4651 115.778 10.7265 115.45 10.7876L115.816 12.7539C116.518 12.6232 117.408 12.1964 118.418 11.5995L117.401 9.87759ZM115.45 10.7876C114 11.0577 113.097 10.7257 112.484 10.0071L110.962 11.3051C112.158 12.7067 113.862 13.1178 115.816 12.7539L115.45 10.7876ZM112.154 9.75365L108.433 7.97786L107.572 9.78279L111.292 11.5586L112.154 9.75365ZM107.82 7.89722L106.929 8.06301L107.295 10.0292L108.186 9.86343L107.82 7.89722ZM106.929 8.06301C106.478 8.14707 106.205 8.45229 106.066 8.65054C105.919 8.86236 105.814 9.10825 105.734 9.34158C105.572 9.81439 105.443 10.4485 105.334 11.2064L107.314 11.4905C107.417 10.7718 107.525 10.284 107.626 9.98938C107.677 9.839 107.71 9.7898 107.707 9.79517C107.703 9.8007 107.674 9.84096 107.614 9.88854C107.549 9.93877 107.443 10.0018 107.295 10.0292L106.929 8.06301ZM105.799 10.4976C104.366 11.3821 103.474 11.7831 103.03 11.8658L103.397 13.832C104.252 13.6727 105.434 13.0735 106.849 12.1993L105.799 10.4976ZM103.03 11.8658L102.728 11.9221L103.094 13.8883L103.397 13.832L103.03 11.8658ZM103.894 12.7221L103.672 11.5293L101.706 11.8953L101.928 13.0882L103.894 12.7221ZM103.672 11.5293C103.467 10.429 103.798 9.46961 104.85 8.55893C105.958 7.59872 107.843 6.72832 110.631 6.01619L110.136 4.07843C107.237 4.81901 104.996 5.78579 103.54 7.04723C102.027 8.35821 101.354 10.005 101.706 11.8953L103.672 11.5293Z" fill="black"/>
</g>
</svg>
